STARTFONT 2.1
FONT -hell-Monobook-Medium-R-Normal--24-240-72-72-M-120-ISO10646-1
SIZE 24 72 72
FONTBOUNDINGBOX 12 24 0 -5
STARTPROPERTIES 23
FOUNDRY "hell"
FAMILY_NAME "Monobook"
WEIGHT_NAME "Medium"
SLANT "R"
SETWIDTH_NAME "Normal"
ADD_STYLE_NAME ""
PIXEL_SIZE 24
POINT_SIZE 240
RESOLUTION_X 72
RESOLUTION_Y 72
SPACING "M"
AVERAGE_WIDTH 120
CHARSET_REGISTRY "ISO10646"
CHARSET_ENCODING "1"
MIN_SPACE 0
COPYRIGHT "Copyright © 2008, dclxvi"
WEIGHT 10
X_HEIGHT 11
QUAD_WIDTH 12
DEFAULT_CHAR 0
FONT_DESCENT 5
FONT_ASCENT 19
_GBDFED_INFO "Edited with gbdfed 1.6."
ENDPROPERTIES
CHARS 754
STARTCHAR char0
ENCODING 0
SWIDTH 500 0
DWIDTH 12 0
BBX 9 15 1 0
BITMAP
E380
8080
8080
8080
0000
0000
8080
8080
8080
0000
0000
8080
8080
8080
E380
ENDCHAR
STARTCHAR space
ENCODING 32
SWIDTH 500 0
DWIDTH 12 0
BBX 0 0 0 0
BITMAP
ENDCHAR
STARTCHAR exclam
ENCODING 33
SWIDTH 500 0
DWIDTH 12 0
BBX 1 15 5 0
BITMAP
80
80
80
80
80
80
80
80
80
80
00
00
80
80
80
ENDCHAR
STARTCHAR quotedbl
ENCODING 34
SWIDTH 500 0
DWIDTH 12 0
BBX 6 5 2 12
BITMAP
CC
44
44
44
44
ENDCHAR
STARTCHAR numbersign
ENCODING 35
SWIDTH 500 0
DWIDTH 12 0
BBX 9 15 1 0
BITMAP
2200
2200
2200
2200
FF80
2200
2200
2200
2200
2200
FF80
2200
2200
2200
2200
ENDCHAR
STARTCHAR dollar
ENCODING 36
SWIDTH 500 0
DWIDTH 12 0
BBX 9 17 1 -1
BITMAP
0800
0800
FF80
8880
8800
8800
8800
8800
FF80
0880
0880
0880
0880
8880
FF80
0800
0800
ENDCHAR
STARTCHAR percent
ENCODING 37
SWIDTH 500 0
DWIDTH 12 0
BBX 9 14 1 0
BITMAP
F100
9100
9200
F200
0400
0400
0800
0800
1000
1000
2780
2480
4480
4780
ENDCHAR
STARTCHAR ampersand
ENCODING 38
SWIDTH 500 0
DWIDTH 12 0
BBX 10 18 1 -3
BITMAP
7E00
4200
4200
4200
4200
FE00
8200
8200
8200
8200
8200
8240
8280
8300
FE00
0200
0200
0300
ENDCHAR
STARTCHAR quotesingle
ENCODING 39
SWIDTH 500 0
DWIDTH 12 0
BBX 2 5 4 12
BITMAP
C0
40
40
40
40
ENDCHAR
STARTCHAR parenleft
ENCODING 40
SWIDTH 500 0
DWIDTH 12 0
BBX 4 15 4 0
BITMAP
10
20
40
80
80
80
80
80
80
80
80
80
40
20
10
ENDCHAR
STARTCHAR parenright
ENCODING 41
SWIDTH 500 0
DWIDTH 12 0
BBX 4 15 4 0
BITMAP
80
40
20
10
10
10
10
10
10
10
10
10
20
40
80
ENDCHAR
STARTCHAR asterisk
ENCODING 42
SWIDTH 500 0
DWIDTH 12 0
BBX 9 9 1 3
BITMAP
4100
2200
1400
0800
FF80
0800
1400
2200
4100
ENDCHAR
STARTCHAR plus
ENCODING 43
SWIDTH 500 0
DWIDTH 12 0
BBX 9 9 1 3
BITMAP
0800
0800
0800
0800
FF80
0800
0800
0800
0800
ENDCHAR
STARTCHAR comma
ENCODING 44
SWIDTH 500 0
DWIDTH 12 0
BBX 2 5 4 -1
BITMAP
C0
40
40
40
40
ENDCHAR
STARTCHAR hyphen
ENCODING 45
SWIDTH 500 0
DWIDTH 12 0
BBX 9 1 1 7
BITMAP
FF80
ENDCHAR
STARTCHAR period
ENCODING 46
SWIDTH 500 0
DWIDTH 12 0
BBX 1 3 5 0
BITMAP
80
80
80
ENDCHAR
STARTCHAR slash
ENCODING 47
SWIDTH 500 0
DWIDTH 12 0
BBX 7 14 2 0
BITMAP
02
02
04
04
08
08
10
10
20
20
40
40
80
80
ENDCHAR
STARTCHAR zero
ENCODING 48
SWIDTH 500 0
DWIDTH 12 0
BBX 9 15 1 0
BITMAP
FF80
8080
8080
8080
8180
8280
8480
8880
9080
A080
C080
8080
8080
8080
FF80
ENDCHAR
STARTCHAR one
ENCODING 49
SWIDTH 500 0
DWIDTH 12 0
BBX 8 15 1 0
BITMAP
78
88
08
08
08
08
08
08
08
09
09
09
09
09
7F
ENDCHAR
STARTCHAR two
ENCODING 50
SWIDTH 500 0
DWIDTH 12 0
BBX 9 15 1 0
BITMAP
FF80
0080
0080
0080
0080
0080
0080
FF80
8000
8000
8000
8000
8000
8000
FF80
ENDCHAR
STARTCHAR three
ENCODING 51
SWIDTH 500 0
DWIDTH 12 0
BBX 9 15 1 0
BITMAP
FF80
0080
0080
0080
0080
0080
0080
1F00
0080
0080
0080
0080
0080
0080
FF80
ENDCHAR
STARTCHAR four
ENCODING 52
SWIDTH 500 0
DWIDTH 12 0
BBX 10 15 1 0
BITMAP
8000
8000
8100
8100
8100
8100
8100
8100
8100
8100
8100
FFC0
0100
0100
0100
ENDCHAR
STARTCHAR five
ENCODING 53
SWIDTH 500 0
DWIDTH 12 0
BBX 10 15 0 0
BITMAP
7FC0
4000
4000
4000
4000
4000
7FC0
0040
0040
0040
0040
0040
0040
8040
7FC0
ENDCHAR
STARTCHAR six
ENCODING 54
SWIDTH 500 0
DWIDTH 12 0
BBX 9 15 1 0
BITMAP
F800
8000
8000
8000
8000
8000
FF80
8080
8080
8080
8080
8080
8080
8080
FF80
ENDCHAR
STARTCHAR seven
ENCODING 55
SWIDTH 500 0
DWIDTH 12 0
BBX 9 15 1 0
BITMAP
FF80
8080
8080
0080
0100
0200
0400
0800
0800
0800
0800
0800
0800
0800
0800
ENDCHAR
STARTCHAR eight
ENCODING 56
SWIDTH 500 0
DWIDTH 12 0
BBX 9 15 1 0
BITMAP
7F00
4100
4100
4100
4100
FF80
8080
8080
8080
8080
8080
8080
8080
8080
FF80
ENDCHAR
STARTCHAR nine
ENCODING 57
SWIDTH 500 0
DWIDTH 12 0
BBX 9 15 1 0
BITMAP
FF80
8080
8080
8080
8080
8080
8080
8080
FF80
0080
0080
0080
0080
0080
0780
ENDCHAR
STARTCHAR colon
ENCODING 58
SWIDTH 500 0
DWIDTH 12 0
BBX 1 10 5 1
BITMAP
80
80
80
00
00
00
00
80
80
80
ENDCHAR
STARTCHAR semicolon
ENCODING 59
SWIDTH 500 0
DWIDTH 12 0
BBX 2 12 4 -1
BITMAP
40
40
40
00
00
00
00
C0
40
40
40
40
ENDCHAR
STARTCHAR less
ENCODING 60
SWIDTH 500 0
DWIDTH 12 0
BBX 8 15 2 0
BITMAP
01
02
04
08
10
20
40
80
40
20
10
08
04
02
01
ENDCHAR
STARTCHAR equal
ENCODING 61
SWIDTH 500 0
DWIDTH 12 0
BBX 9 6 1 4
BITMAP
FF80
0000
0000
0000
0000
FF80
ENDCHAR
STARTCHAR greater
ENCODING 62
SWIDTH 500 0
DWIDTH 12 0
BBX 8 15 2 0
BITMAP
80
40
20
10
08
04
02
01
02
04
08
10
20
40
80
ENDCHAR
STARTCHAR question
ENCODING 63
SWIDTH 500 0
DWIDTH 12 0
BBX 9 15 1 0
BITMAP
FF80
8080
0080
0080
0080
0100
0200
0400
0800
0800
0000
0000
0800
0800
0800
ENDCHAR
STARTCHAR at
ENCODING 64
SWIDTH 500 0
DWIDTH 12 0
BBX 10 15 1 0
BITMAP
FFC0
8040
8040
9FC0
9040
9040
9040
9040
9040
9040
9040
9FC0
8000
8000
FFC0
ENDCHAR
STARTCHAR A
ENCODING 65
SWIDTH 500 0
DWIDTH 12 0
BBX 9 15 1 0
BITMAP
0780
0880
1080
2080
4080
8080
8080
8080
FF80
8080
8080
8080
8080
8080
8080
ENDCHAR
STARTCHAR B
ENCODING 66
SWIDTH 500 0
DWIDTH 12 0
BBX 9 15 1 0
BITMAP
FF80
8080
8080
8080
8080
8080
FF00
8080
8080
8080
8080
8080
8080
8080
FF80
ENDCHAR
STARTCHAR C
ENCODING 67
SWIDTH 500 0
DWIDTH 12 0
BBX 9 15 1 0
BITMAP
FF80
8080
8000
8000
8000
8000
8000
8000
8000
8000
8000
8000
8000
8080
FF80
ENDCHAR
STARTCHAR D
ENCODING 68
SWIDTH 500 0
DWIDTH 12 0
BBX 9 15 1 0
BITMAP
F800
8400
8200
8100
8080
8080
8080
8080
8080
8080
8080
8080
8080
8080
FF00
ENDCHAR
STARTCHAR E
ENCODING 69
SWIDTH 500 0
DWIDTH 12 0
BBX 9 15 1 0
BITMAP
FF80
8000
8000
8000
8000
8000
8000
FF00
8000
8000
8000
8000
8000
8000
FF80
ENDCHAR
STARTCHAR F
ENCODING 70
SWIDTH 500 0
DWIDTH 12 0
BBX 9 15 1 0
BITMAP
FF80
8000
8000
8000
8000
8000
8000
FF00
8000
8000
8000
8000
8000
8000
8000
ENDCHAR
STARTCHAR G
ENCODING 71
SWIDTH 500 0
DWIDTH 12 0
BBX 9 15 1 0
BITMAP
FF80
8080
8000
8000
8000
8000
8000
8380
8080
8080
8080
8080
8080
8080
FF80
ENDCHAR
STARTCHAR H
ENCODING 72
SWIDTH 500 0
DWIDTH 12 0
BBX 9 15 1 0
BITMAP
8080
8080
8080
8080
8080
8080
8080
FF80
8080
8080
8080
8080
8080
8080
8080
ENDCHAR
STARTCHAR I
ENCODING 73
SWIDTH 500 0
DWIDTH 12 0
BBX 5 15 3 0
BITMAP
F8
20
20
20
20
20
20
20
20
20
28
28
28
28
F8
ENDCHAR
STARTCHAR J
ENCODING 74
SWIDTH 500 0
DWIDTH 12 0
BBX 10 15 1 0
BITMAP
07C0
0100
0100
0100
0100
0100
0100
0100
0100
0100
0100
0100
0100
8100
FF00
ENDCHAR
STARTCHAR K
ENCODING 75
SWIDTH 500 0
DWIDTH 12 0
BBX 9 15 1 0
BITMAP
8180
8200
8400
8800
9000
A000
C000
FF80
8080
8080
8080
8080
8080
8080
8080
ENDCHAR
STARTCHAR L
ENCODING 76
SWIDTH 500 0
DWIDTH 12 0
BBX 9 15 1 0
BITMAP
8000
8000
8000
8000
8000
8000
8000
8000
8000
8000
8000
8000
8000
8080
FF80
ENDCHAR
STARTCHAR M
ENCODING 77
SWIDTH 500 0
DWIDTH 12 0
BBX 10 15 1 0
BITMAP
FFC0
8440
8440
8440
8440
8440
8440
8440
8440
8440
8040
8040
8040
8040
8040
ENDCHAR
STARTCHAR N
ENCODING 78
SWIDTH 500 0
DWIDTH 12 0
BBX 9 15 1 0
BITMAP
9F80
A080
C080
8080
8080
8080
8080
8080
8080
8080
8080
8080
8080
8080
8080
ENDCHAR
STARTCHAR O
ENCODING 79
SWIDTH 500 0
DWIDTH 12 0
BBX 9 15 1 0
BITMAP
FF80
8080
8080
8080
8080
8080
8080
8080
8080
8080
8080
8080
8080
8080
FF80
ENDCHAR
STARTCHAR P
ENCODING 80
SWIDTH 500 0
DWIDTH 12 0
BBX 9 15 1 0
BITMAP
FF80
8080
8080
8080
8080
8080
8080
FF80
8000
8000
8000
8000
8000
8000
8000
ENDCHAR
STARTCHAR Q
ENCODING 81
SWIDTH 500 0
DWIDTH 12 0
BBX 9 17 1 -2
BITMAP
FF80
8080
8080
8080
8080
8080
8080
8080
8080
8080
8080
8080
8080
8480
FF80
0400
0780
ENDCHAR
STARTCHAR R
ENCODING 82
SWIDTH 500 0
DWIDTH 12 0
BBX 9 15 1 0
BITMAP
FF80
8080
8080
8080
8080
8080
8080
FF80
8400
8200
8200
8100
8100
8080
8080
ENDCHAR
STARTCHAR S
ENCODING 83
SWIDTH 500 0
DWIDTH 12 0
BBX 9 15 1 0
BITMAP
FF80
8080
8000
8000
8000
8000
8000
FF80
0080
0080
0080
0080
0080
8080
FF80
ENDCHAR
STARTCHAR T
ENCODING 84
SWIDTH 500 0
DWIDTH 12 0
BBX 9 15 1 0
BITMAP
FF80
0800
0800
0800
0800
0800
0800
0800
0800
0800
0800
0800
0800
0800
0800
ENDCHAR
STARTCHAR U
ENCODING 85
SWIDTH 500 0
DWIDTH 12 0
BBX 9 15 1 0
BITMAP
8080
8080
8080
8080
8080
8080
8080
8080
8080
8080
8080
8080
8180
8280
FC80
ENDCHAR
STARTCHAR V
ENCODING 86
SWIDTH 500 0
DWIDTH 12 0
BBX 9 15 1 0
BITMAP
8080
8080
8080
8080
8080
8080
8080
8080
8080
8100
8200
8400
8800
9000
E000
ENDCHAR
STARTCHAR W
ENCODING 87
SWIDTH 500 0
DWIDTH 12 0
BBX 10 15 1 0
BITMAP
8040
8040
8040
8040
8040
8040
8440
8440
8440
8440
8440
8440
8440
8440
FFC0
ENDCHAR
STARTCHAR X
ENCODING 88
SWIDTH 500 0
DWIDTH 12 0
BBX 9 15 1 0
BITMAP
8080
8080
8080
8080
4100
2200
1400
0800
1400
2200
4100
8080
8080
8080
8080
ENDCHAR
STARTCHAR afii10037
ENCODING 89
SWIDTH 500 0
DWIDTH 12 0
BBX 9 15 1 0
BITMAP
8080
8080
8080
8080
8080
8080
8080
8080
FF80
0080
0080
0080
0080
0080
7F80
ENDCHAR
STARTCHAR Z
ENCODING 90
SWIDTH 500 0
DWIDTH 12 0
BBX 9 15 1 0
BITMAP
FF80
0080
0080
0080
0100
0200
0400
0800
1000
2000
4000
8000
8000
8000
FF80
ENDCHAR
STARTCHAR bracketleft
ENCODING 91
SWIDTH 500 0
DWIDTH 12 0
BBX 4 15 4 0
BITMAP
F0
80
80
80
80
80
80
80
80
80
80
80
80
80
F0
ENDCHAR
STARTCHAR backslash
ENCODING 92
SWIDTH 500 0
DWIDTH 12 0
BBX 7 14 2 0
BITMAP
80
80
40
40
20
20
10
10
08
08
04
04
02
02
ENDCHAR
STARTCHAR bracketright
ENCODING 93
SWIDTH 500 0
DWIDTH 12 0
BBX 4 15 4 0
BITMAP
F0
10
10
10
10
10
10
10
10
10
10
10
10
10
F0
ENDCHAR
STARTCHAR asciicircum
ENCODING 94
SWIDTH 500 0
DWIDTH 12 0
BBX 9 5 1 12
BITMAP
0800
1400
2200
4100
8080
ENDCHAR
STARTCHAR underscore
ENCODING 95
SWIDTH 500 0
DWIDTH 12 0
BBX 9 1 1 -2
BITMAP
FF80
ENDCHAR
STARTCHAR grave
ENCODING 96
SWIDTH 500 0
DWIDTH 12 0
BBX 2 3 4 16
BITMAP
80
80
C0
ENDCHAR
STARTCHAR a
ENCODING 97
SWIDTH 500 0
DWIDTH 12 0
BBX 9 11 1 0
BITMAP
7F80
0080
0080
0080
FF80
8080
8080
8080
8080
8080
FF80
ENDCHAR
STARTCHAR b
ENCODING 98
SWIDTH 500 0
DWIDTH 12 0
BBX 9 15 1 0
BITMAP
8000
8000
8000
8000
FF80
8080
8080
8080
8080
8080
8080
8080
8080
8080
FF80
ENDCHAR
STARTCHAR c
ENCODING 99
SWIDTH 500 0
DWIDTH 12 0
BBX 9 11 1 0
BITMAP
FF80
8000
8000
8000
8000
8000
8000
8000
8000
8000
FF80
ENDCHAR
STARTCHAR d
ENCODING 100
SWIDTH 500 0
DWIDTH 12 0
BBX 9 15 1 0
BITMAP
0080
0080
0080
0080
FF80
8080
8080
8080
8080
8080
8080
8080
8080
8080
FF80
ENDCHAR
STARTCHAR e
ENCODING 101
SWIDTH 500 0
DWIDTH 12 0
BBX 9 11 1 0
BITMAP
FF80
8080
8080
8080
8080
FF80
8000
8000
8000
8000
FF00
ENDCHAR
STARTCHAR f
ENCODING 102
SWIDTH 500 0
DWIDTH 12 0
BBX 6 15 4 0
BITMAP
7C
40
40
40
F8
40
40
40
40
40
40
40
40
40
40
ENDCHAR
STARTCHAR g
ENCODING 103
SWIDTH 500 0
DWIDTH 12 0
BBX 9 15 1 -4
BITMAP
FF80
8080
8080
8080
8080
8080
8080
8080
8080
8080
FF80
0080
0080
0080
7F80
ENDCHAR
STARTCHAR h
ENCODING 104
SWIDTH 500 0
DWIDTH 12 0
BBX 9 15 1 0
BITMAP
8000
8000
8000
8000
FF80
8080
8080
8080
8080
8080
8080
8080
8080
8080
8080
ENDCHAR
STARTCHAR i
ENCODING 105
SWIDTH 500 0
DWIDTH 12 0
BBX 5 15 3 0
BITMAP
20
20
20
00
E0
20
20
20
20
20
28
28
28
28
F8
ENDCHAR
STARTCHAR j
ENCODING 106
SWIDTH 500 0
DWIDTH 12 0
BBX 7 19 2 -4
BITMAP
02
02
02
00
0E
02
02
02
02
02
02
02
02
02
02
02
02
82
FE
ENDCHAR
STARTCHAR k
ENCODING 107
SWIDTH 500 0
DWIDTH 12 0
BBX 8 15 2 0
BITMAP
80
80
80
80
81
82
84
88
90
FF
81
81
81
81
81
ENDCHAR
STARTCHAR l
ENCODING 108
SWIDTH 500 0
DWIDTH 12 0
BBX 5 15 3 0
BITMAP
E0
20
20
20
20
20
20
20
20
20
28
28
28
28
F8
ENDCHAR
STARTCHAR m
ENCODING 109
SWIDTH 500 0
DWIDTH 12 0
BBX 9 11 1 0
BITMAP
FF80
8880
8880
8880
8880
8880
8880
8080
8080
8080
8080
ENDCHAR
STARTCHAR n
ENCODING 110
SWIDTH 500 0
DWIDTH 12 0
BBX 9 11 1 0
BITMAP
BF80
C080
8080
8080
8080
8080
8080
8080
8080
8080
8080
ENDCHAR
STARTCHAR o
ENCODING 111
SWIDTH 500 0
DWIDTH 12 0
BBX 9 11 1 0
BITMAP
FF80
8080
8080
8080
8080
8080
8080
8080
8080
8080
FF80
ENDCHAR
STARTCHAR p
ENCODING 112
SWIDTH 500 0
DWIDTH 12 0
BBX 9 15 1 -4
BITMAP
FF80
8080
8080
8080
8080
8080
8080
8080
8080
8080
FF80
8000
8000
8000
8000
ENDCHAR
STARTCHAR q
ENCODING 113
SWIDTH 500 0
DWIDTH 12 0
BBX 10 15 1 -4
BITMAP
FF80
8080
8080
8080
8080
8080
8080
8080
8080
8080
FF80
0080
0080
0080
00C0
ENDCHAR
STARTCHAR r
ENCODING 114
SWIDTH 500 0
DWIDTH 12 0
BBX 9 11 1 0
BITMAP
FF80
8080
8000
8000
8000
8000
8000
8000
8000
8000
8000
ENDCHAR
STARTCHAR s
ENCODING 115
SWIDTH 500 0
DWIDTH 12 0
BBX 9 11 1 0
BITMAP
FF80
8000
8000
8000
8000
FF80
0080
0080
0080
0080
FF80
ENDCHAR
STARTCHAR t
ENCODING 116
SWIDTH 500 0
DWIDTH 12 0
BBX 7 15 3 0
BITMAP
20
20
20
20
FC
20
20
20
20
20
20
20
20
20
3E
ENDCHAR
STARTCHAR u
ENCODING 117
SWIDTH 500 0
DWIDTH 12 0
BBX 9 11 1 0
BITMAP
8080
8080
8080
8080
8080
8080
8080
8080
8080
8180
FE80
ENDCHAR
STARTCHAR v
ENCODING 118
SWIDTH 500 0
DWIDTH 12 0
BBX 9 11 1 0
BITMAP
8080
8080
8080
8080
8080
8100
8200
8400
8800
9000
E000
ENDCHAR
STARTCHAR w
ENCODING 119
SWIDTH 500 0
DWIDTH 12 0
BBX 9 11 1 0
BITMAP
8080
8080
8080
8080
8880
8880
8880
8880
8880
8880
FF80
ENDCHAR
STARTCHAR x
ENCODING 120
SWIDTH 500 0
DWIDTH 12 0
BBX 9 11 1 0
BITMAP
8080
8080
4100
2200
1400
0800
1400
2200
4100
8080
8080
ENDCHAR
STARTCHAR y
ENCODING 121
SWIDTH 500 0
DWIDTH 12 0
BBX 9 15 1 -4
BITMAP
8080
8080
8080
8080
8080
8080
8080
8080
8080
8080
FF80
0080
0080
0080
7F80
ENDCHAR
STARTCHAR z
ENCODING 122
SWIDTH 500 0
DWIDTH 12 0
BBX 9 11 1 0
BITMAP
FF80
0080
0100
0200
0400
0800
1000
2000
4000
8000
FF80
ENDCHAR
STARTCHAR braceleft
ENCODING 123
SWIDTH 500 0
DWIDTH 12 0
BBX 6 15 3 0
BITMAP
3C
20
20
20
20
20
20
E0
20
20
20
20
20
20
3C
ENDCHAR
STARTCHAR bar
ENCODING 124
SWIDTH 500 0
DWIDTH 12 0
BBX 1 15 5 0
BITMAP
80
80
80
80
80
80
00
00
00
80
80
80
80
80
80
ENDCHAR
STARTCHAR braceright
ENCODING 125
SWIDTH 500 0
DWIDTH 12 0
BBX 6 15 3 0
BITMAP
F0
10
10
10
10
10
10
1C
10
10
10
10
10
10
F0
ENDCHAR
STARTCHAR asciitilde
ENCODING 126
SWIDTH 500 0
DWIDTH 12 0
BBX 9 4 1 13
BITMAP
F880
8880
8880
8F80
ENDCHAR
STARTCHAR nbspace
ENCODING 160
SWIDTH 500 0
DWIDTH 12 0
BBX 0 0 0 0
BITMAP
ENDCHAR
STARTCHAR exclamdown
ENCODING 161
SWIDTH 500 0
DWIDTH 12 0
BBX 1 15 5 0
BITMAP
80
80
80
00
00
80
80
80
80
80
80
80
80
80
80
ENDCHAR
STARTCHAR cent
ENCODING 162
SWIDTH 500 0
DWIDTH 12 0
BBX 9 15 1 -2
BITMAP
0800
0800
FF80
8800
8800
8800
8800
8800
8800
8800
8800
8800
FF80
0800
0800
ENDCHAR
STARTCHAR sterling
ENCODING 163
SWIDTH 500 0
DWIDTH 12 0
BBX 9 15 1 0
BITMAP
3F00
4100
4000
4000
4000
4000
4000
FC00
4000
4000
4000
4000
4080
4080
FF80
ENDCHAR
STARTCHAR currency
ENCODING 164
SWIDTH 500 0
DWIDTH 12 0
BBX 10 12 1 1
BITMAP
8040
4080
3F00
4080
4080
4080
4080
4080
4080
3F00
4080
8040
ENDCHAR
STARTCHAR yen
ENCODING 165
SWIDTH 500 0
DWIDTH 12 0
BBX 9 15 1 0
BITMAP
8080
8080
4100
4100
2200
2200
1400
0800
0800
7F00
0800
0800
7F00
0800
0800
ENDCHAR
STARTCHAR brokenbar
ENCODING 166
SWIDTH 500 0
DWIDTH 12 0
BBX 1 15 5 0
BITMAP
80
80
80
80
80
80
00
00
00
80
80
80
80
80
80
ENDCHAR
STARTCHAR section
ENCODING 167
SWIDTH 500 0
DWIDTH 12 0
BBX 7 16 2 0
BITMAP
FE
82
80
80
FE
82
82
82
82
82
82
FE
02
02
82
FE
ENDCHAR
STARTCHAR dieresis
ENCODING 168
SWIDTH 500 0
DWIDTH 12 0
BBX 5 3 3 16
BITMAP
88
88
88
ENDCHAR
STARTCHAR copyright
ENCODING 169
SWIDTH 500 0
DWIDTH 12 0
BBX 10 12 1 1
BITMAP
7F80
8040
BF40
A040
A040
A040
A040
A040
A040
BF40
8040
7F80
ENDCHAR
STARTCHAR ordfeminine
ENCODING 170
SWIDTH 500 0
DWIDTH 12 0
BBX 8 11 2 7
BITMAP
7F
01
01
FF
81
81
81
81
FF
00
FF
ENDCHAR
STARTCHAR guillemotleft
ENCODING 171
SWIDTH 500 0
DWIDTH 12 0
BBX 10 11 1 0
BITMAP
0440
0880
1100
2200
4400
8800
4400
2200
1100
0880
0440
ENDCHAR
STARTCHAR logicalnot
ENCODING 172
SWIDTH 500 0
DWIDTH 12 0
BBX 9 6 1 4
BITMAP
FF80
0080
0080
0080
0080
0080
ENDCHAR
STARTCHAR softhyphen
ENCODING 173
SWIDTH 500 0
DWIDTH 12 0
BBX 7 1 2 7
BITMAP
FE
ENDCHAR
STARTCHAR registered
ENCODING 174
SWIDTH 500 0
DWIDTH 12 0
BBX 10 12 1 1
BITMAP
7F80
8040
BF40
A140
A140
A140
BF40
A440
A240
A140
8040
7F80
ENDCHAR
STARTCHAR macron
ENCODING 175
SWIDTH 500 0
DWIDTH 12 0
BBX 7 1 2 17
BITMAP
FE
ENDCHAR
STARTCHAR degree
ENCODING 176
SWIDTH 500 0
DWIDTH 12 0
BBX 6 6 3 11
BITMAP
FC
84
84
84
84
FC
ENDCHAR
STARTCHAR plusminus
ENCODING 177
SWIDTH 500 0
DWIDTH 12 0
BBX 9 12 1 0
BITMAP
0800
0800
0800
0800
FF80
0800
0800
0800
0800
0000
0000
FF80
ENDCHAR
STARTCHAR twosuperior
ENCODING 178
SWIDTH 500 0
DWIDTH 12 0
BBX 5 7 3 10
BITMAP
F8
08
08
F8
80
80
F8
ENDCHAR
STARTCHAR threesuperior
ENCODING 179
SWIDTH 500 0
DWIDTH 12 0
BBX 5 7 3 10
BITMAP
F8
08
08
30
08
08
F8
ENDCHAR
STARTCHAR acute
ENCODING 180
SWIDTH 500 0
DWIDTH 12 0
BBX 3 3 5 16
BITMAP
20
40
80
ENDCHAR
STARTCHAR mu
ENCODING 181
SWIDTH 500 0
DWIDTH 12 0
BBX 9 15 1 -4
BITMAP
8080
8080
8080
8080
8080
8080
8080
8080
8180
8280
FC80
8000
8000
8000
8000
ENDCHAR
STARTCHAR paragraph
ENCODING 182
SWIDTH 500 0
DWIDTH 12 0
BBX 9 15 1 0
BITMAP
FF80
8880
8880
8880
8880
8880
8880
F880
0880
0880
0880
0880
0880
0880
0880
ENDCHAR
STARTCHAR periodcentered
ENCODING 183
SWIDTH 500 0
DWIDTH 12 0
BBX 1 3 5 6
BITMAP
80
80
80
ENDCHAR
STARTCHAR cedilla
ENCODING 184
SWIDTH 500 0
DWIDTH 12 0
BBX 2 4 4 -4
BITMAP
40
40
40
80
ENDCHAR
STARTCHAR onesuperior
ENCODING 185
SWIDTH 500 0
DWIDTH 12 0
BBX 3 7 4 10
BITMAP
C0
40
40
40
60
60
E0
ENDCHAR
STARTCHAR ordmasculine
ENCODING 186
SWIDTH 500 0
DWIDTH 12 0
BBX 8 11 2 7
BITMAP
7E
81
81
81
81
81
81
81
7E
00
FF
ENDCHAR
STARTCHAR guillemotright
ENCODING 187
SWIDTH 500 0
DWIDTH 12 0
BBX 10 11 1 0
BITMAP
8800
4400
2200
1100
0880
0440
0880
1100
2200
4400
8800
ENDCHAR
STARTCHAR onequarter
ENCODING 188
SWIDTH 500 0
DWIDTH 12 0
BBX 10 17 1 -1
BITMAP
1000
3000
5000
1000
1080
1100
1200
0400
0800
1000
2400
4480
8480
0480
07C0
0080
0080
ENDCHAR
STARTCHAR onehalf
ENCODING 189
SWIDTH 500 0
DWIDTH 12 0
BBX 9 17 1 -1
BITMAP
1000
3000
5000
1000
1080
1100
1200
0400
0800
1000
2F80
4080
8080
0F80
0800
0800
0F80
ENDCHAR
STARTCHAR threequarters
ENCODING 190
SWIDTH 500 0
DWIDTH 12 0
BBX 10 17 1 -1
BITMAP
7C00
0400
0400
1800
0400
0480
7D00
0200
0400
0800
1400
2480
4480
8480
07C0
0080
0080
ENDCHAR
STARTCHAR questiondown
ENCODING 191
SWIDTH 500 0
DWIDTH 12 0
BBX 9 15 1 0
BITMAP
0800
0800
0800
0000
0000
0800
0800
1000
2000
4000
8000
8000
8000
8080
FF80
ENDCHAR
STARTCHAR Agrave
ENCODING 192
SWIDTH 500 0
DWIDTH 12 0
BBX 9 19 1 0
BITMAP
2000
1000
0800
0000
0780
0880
1080
2080
4080
8080
8080
8080
FF80
8080
8080
8080
8080
8080
8080
ENDCHAR
STARTCHAR Aacute
ENCODING 193
SWIDTH 500 0
DWIDTH 12 0
BBX 9 19 1 0
BITMAP
0200
0400
0800
0000
0780
0880
1080
2080
4080
8080
8080
8080
FF80
8080
8080
8080
8080
8080
8080
ENDCHAR
STARTCHAR Acircumflex
ENCODING 194
SWIDTH 500 0
DWIDTH 12 0
BBX 9 19 1 0
BITMAP
0800
1400
2200
0000
0780
0880
1080
2080
4080
8080
8080
8080
FF80
8080
8080
8080
8080
8080
8080
ENDCHAR
STARTCHAR Atilde
ENCODING 195
SWIDTH 500 0
DWIDTH 12 0
BBX 9 19 1 0
BITMAP
7900
4900
4F00
0000
0780
0880
1080
2080
4080
8080
8080
8080
FF80
8080
8080
8080
8080
8080
8080
ENDCHAR
STARTCHAR Adieresis
ENCODING 196
SWIDTH 500 0
DWIDTH 12 0
BBX 9 19 1 0
BITMAP
2200
2200
2200
0000
0780
0880
1080
2080
4080
8080
8080
8080
FF80
8080
8080
8080
8080
8080
8080
ENDCHAR
STARTCHAR Aring
ENCODING 197
SWIDTH 500 0
DWIDTH 12 0
BBX 9 19 1 0
BITMAP
3E00
2200
2200
3E00
0780
0880
1080
2080
4080
8080
8080
8080
FF80
8080
8080
8080
8080
8080
8080
ENDCHAR
STARTCHAR AE
ENCODING 198
SWIDTH 500 0
DWIDTH 12 0
BBX 11 15 0 0
BITMAP
1FE0
2400
4400
8400
8400
8400
8400
FFC0
8400
8400
8400
8400
8400
8400
87E0
ENDCHAR
STARTCHAR Ccedilla
ENCODING 199
SWIDTH 500 0
DWIDTH 12 0
BBX 9 19 1 -4
BITMAP
FF80
8080
8000
8000
8000
8000
8000
8000
8000
8000
8000
8000
8000
8080
FF80
0800
0800
0800
1000
ENDCHAR
STARTCHAR Egrave
ENCODING 200
SWIDTH 500 0
DWIDTH 12 0
BBX 9 19 1 0
BITMAP
2000
1000
0800
0000
FF80
8000
8000
8000
8000
8000
8000
FF00
8000
8000
8000
8000
8000
8000
FF80
ENDCHAR
STARTCHAR Eacute
ENCODING 201
SWIDTH 500 0
DWIDTH 12 0
BBX 9 19 1 0
BITMAP
0200
0400
0800
0000
FF80
8000
8000
8000
8000
8000
8000
FF00
8000
8000
8000
8000
8000
8000
FF80
ENDCHAR
STARTCHAR Ecircumflex
ENCODING 202
SWIDTH 500 0
DWIDTH 12 0
BBX 9 19 1 0
BITMAP
0800
1400
2200
0000
FF80
8000
8000
8000
8000
8000
8000
FF00
8000
8000
8000
8000
8000
8000
FF80
ENDCHAR
STARTCHAR Edieresis
ENCODING 203
SWIDTH 500 0
DWIDTH 12 0
BBX 9 19 1 0
BITMAP
2200
2200
2200
0000
FF80
8000
8000
8000
8000
8000
8000
FF00
8000
8000
8000
8000
8000
8000
FF80
ENDCHAR
STARTCHAR Igrave
ENCODING 204
SWIDTH 500 0
DWIDTH 12 0
BBX 5 19 3 0
BITMAP
80
40
20
00
F8
20
20
20
20
20
20
20
20
20
28
28
28
28
F8
ENDCHAR
STARTCHAR Iacute
ENCODING 205
SWIDTH 500 0
DWIDTH 12 0
BBX 5 19 3 0
BITMAP
08
10
20
00
F8
20
20
20
20
20
20
20
20
20
28
28
28
28
F8
ENDCHAR
STARTCHAR Icircumflex
ENCODING 206
SWIDTH 500 0
DWIDTH 12 0
BBX 5 19 3 0
BITMAP
20
50
88
00
F8
20
20
20
20
20
20
20
20
20
28
28
28
28
F8
ENDCHAR
STARTCHAR Idieresis
ENCODING 207
SWIDTH 500 0
DWIDTH 12 0
BBX 5 19 3 0
BITMAP
88
88
88
00
F8
20
20
20
20
20
20
20
20
20
28
28
28
28
F8
ENDCHAR
STARTCHAR Eth
ENCODING 208
SWIDTH 500 0
DWIDTH 12 0
BBX 10 15 0 0
BITMAP
7C00
4200
4100
4080
4040
4040
4040
FC40
4040
4040
4040
4040
4040
4040
7F80
ENDCHAR
STARTCHAR Ntilde
ENCODING 209
SWIDTH 500 0
DWIDTH 12 0
BBX 9 19 1 0
BITMAP
7900
4900
4F00
0000
9F80
A080
C080
8080
8080
8080
8080
8080
8080
8080
8080
8080
8080
8080
8080
ENDCHAR
STARTCHAR Ograve
ENCODING 210
SWIDTH 500 0
DWIDTH 12 0
BBX 9 19 1 0
BITMAP
2000
1000
0800
0000
FF80
8080
8080
8080
8080
8080
8080
8080
8080
8080
8080
8080
8080
8080
FF80
ENDCHAR
STARTCHAR Oacute
ENCODING 211
SWIDTH 500 0
DWIDTH 12 0
BBX 9 19 1 0
BITMAP
0200
0400
0800
0000
FF80
8080
8080
8080
8080
8080
8080
8080
8080
8080
8080
8080
8080
8080
FF80
ENDCHAR
STARTCHAR Ocircumflex
ENCODING 212
SWIDTH 500 0
DWIDTH 12 0
BBX 9 19 1 0
BITMAP
0800
1400
2200
0000
FF80
8080
8080
8080
8080
8080
8080
8080
8080
8080
8080
8080
8080
8080
FF80
ENDCHAR
STARTCHAR Otilde
ENCODING 213
SWIDTH 500 0
DWIDTH 12 0
BBX 9 19 1 0
BITMAP
7900
4900
4F00
0000
FF80
8080
8080
8080
8080
8080
8080
8080
8080
8080
8080
8080
8080
8080
FF80
ENDCHAR
STARTCHAR Odieresis
ENCODING 214
SWIDTH 500 0
DWIDTH 12 0
BBX 9 19 1 0
BITMAP
2200
2200
2200
0000
FF80
8080
8080
8080
8080
8080
8080
8080
8080
8080
8080
8080
8080
8080
FF80
ENDCHAR
STARTCHAR multiply
ENCODING 215
SWIDTH 500 0
DWIDTH 12 0
BBX 11 11 0 2
BITMAP
8020
4040
2080
1100
0A00
0400
0A00
1100
2080
4040
8020
ENDCHAR
STARTCHAR Oslash
ENCODING 216
SWIDTH 500 0
DWIDTH 12 0
BBX 11 15 0 0
BITMAP
7FC0
4040
4060
4040
40C0
4140
4240
4440
4840
5040
6040
4040
C040
4040
7FC0
ENDCHAR
STARTCHAR Ugrave
ENCODING 217
SWIDTH 500 0
DWIDTH 12 0
BBX 9 19 1 0
BITMAP
2000
1000
0800
0000
8080
8080
8080
8080
8080
8080
8080
8080
8080
8080
8080
8080
8180
8280
FC80
ENDCHAR
STARTCHAR Uacute
ENCODING 218
SWIDTH 500 0
DWIDTH 12 0
BBX 9 19 1 0
BITMAP
0200
0400
0800
0000
8080
8080
8080
8080
8080
8080
8080
8080
8080
8080
8080
8080
8180
8280
FC80
ENDCHAR
STARTCHAR Ucircumflex
ENCODING 219
SWIDTH 500 0
DWIDTH 12 0
BBX 9 19 1 0
BITMAP
0800
1400
2200
0000
8080
8080
8080
8080
8080
8080
8080
8080
8080
8080
8080
8080
8180
8280
FC80
ENDCHAR
STARTCHAR Udieresis
ENCODING 220
SWIDTH 500 0
DWIDTH 12 0
BBX 9 19 1 0
BITMAP
2200
2200
2200
0000
8080
8080
8080
8080
8080
8080
8080
8080
8080
8080
8080
8080
8180
8280
FC80
ENDCHAR
STARTCHAR afii10037
ENCODING 221
SWIDTH 500 0
DWIDTH 12 0
BBX 9 19 1 0
BITMAP
0200
0400
0800
0000
8080
8080
8080
8080
8080
8080
8080
8080
FF80
0080
0080
0080
0080
0080
7F80
ENDCHAR
STARTCHAR Thorn
ENCODING 222
SWIDTH 500 0
DWIDTH 12 0
BBX 9 15 1 0
BITMAP
8000
8000
8000
FF80
8080
8080
8080
8080
8080
8080
FF80
8000
8000
8000
8000
ENDCHAR
STARTCHAR germandbls
ENCODING 223
SWIDTH 500 0
DWIDTH 12 0
BBX 9 17 1 -2
BITMAP
FE00
8200
8200
8200
8200
8200
FF80
8080
8080
8080
8080
8080
8080
8080
FF80
8000
8000
ENDCHAR
STARTCHAR agrave
ENCODING 224
SWIDTH 500 0
DWIDTH 12 0
BBX 9 15 1 0
BITMAP
2000
1000
0800
0000
7F80
0080
0080
0080
FF80
8080
8080
8080
8080
8080
FF80
ENDCHAR
STARTCHAR aacute
ENCODING 225
SWIDTH 500 0
DWIDTH 12 0
BBX 9 15 1 0
BITMAP
0200
0400
0800
0000
7F80
0080
0080
0080
FF80
8080
8080
8080
8080
8080
FF80
ENDCHAR
STARTCHAR acircumflex
ENCODING 226
SWIDTH 500 0
DWIDTH 12 0
BBX 9 15 1 0
BITMAP
0800
1400
2200
0000
7F80
0080
0080
0080
FF80
8080
8080
8080
8080
8080
FF80
ENDCHAR
STARTCHAR atilde
ENCODING 227
SWIDTH 500 0
DWIDTH 12 0
BBX 9 15 1 0
BITMAP
7900
4900
4F00
0000
7F80
0080
0080
0080
FF80
8080
8080
8080
8080
8080
FF80
ENDCHAR
STARTCHAR adieresis
ENCODING 228
SWIDTH 500 0
DWIDTH 12 0
BBX 9 15 1 0
BITMAP
2200
2200
2200
0000
7F80
0080
0080
0080
FF80
8080
8080
8080
8080
8080
FF80
ENDCHAR
STARTCHAR aring
ENCODING 229
SWIDTH 500 0
DWIDTH 12 0
BBX 9 15 1 0
BITMAP
3E00
2200
2200
3E00
7F80
0080
0080
0080
FF80
8080
8080
8080
8080
8080
FF80
ENDCHAR
STARTCHAR ae
ENCODING 230
SWIDTH 500 0
DWIDTH 12 0
BBX 11 11 0 0
BITMAP
7FE0
0420
0420
0420
FC20
87E0
8400
8400
8400
8400
FFC0
ENDCHAR
STARTCHAR ccedilla
ENCODING 231
SWIDTH 500 0
DWIDTH 12 0
BBX 9 15 1 -4
BITMAP
FF80
8000
8000
8000
8000
8000
8000
8000
8000
8000
FF80
0800
0800
0800
1000
ENDCHAR
STARTCHAR egrave
ENCODING 232
SWIDTH 500 0
DWIDTH 12 0
BBX 9 15 1 0
BITMAP
2000
1000
0800
0000
FF80
8080
8080
8080
8080
FF80
8000
8000
8000
8000
FF00
ENDCHAR
STARTCHAR eacute
ENCODING 233
SWIDTH 500 0
DWIDTH 12 0
BBX 9 15 1 0
BITMAP
0200
0400
0800
0000
FF80
8080
8080
8080
8080
FF80
8000
8000
8000
8000
FF00
ENDCHAR
STARTCHAR ecircumflex
ENCODING 234
SWIDTH 500 0
DWIDTH 12 0
BBX 9 15 1 0
BITMAP
0800
1400
2200
0000
FF80
8080
8080
8080
8080
FF80
8000
8000
8000
8000
FF00
ENDCHAR
STARTCHAR edieresis
ENCODING 235
SWIDTH 500 0
DWIDTH 12 0
BBX 9 15 1 0
BITMAP
2200
2200
2200
0000
FF80
8080
8080
8080
8080
FF80
8000
8000
8000
8000
FF00
ENDCHAR
STARTCHAR igrave
ENCODING 236
SWIDTH 500 0
DWIDTH 12 0
BBX 5 15 3 0
BITMAP
80
40
20
00
E0
20
20
20
20
20
28
28
28
28
F8
ENDCHAR
STARTCHAR iacute
ENCODING 237
SWIDTH 500 0
DWIDTH 12 0
BBX 5 15 3 0
BITMAP
08
10
20
00
E0
20
20
20
20
20
28
28
28
28
F8
ENDCHAR
STARTCHAR icircumflex
ENCODING 238
SWIDTH 500 0
DWIDTH 12 0
BBX 5 15 3 0
BITMAP
20
50
88
00
E0
20
20
20
20
20
28
28
28
28
F8
ENDCHAR
STARTCHAR idieresis
ENCODING 239
SWIDTH 500 0
DWIDTH 12 0
BBX 5 15 3 0
BITMAP
88
88
88
00
E0
20
20
20
20
20
28
28
28
28
F8
ENDCHAR
STARTCHAR eth
ENCODING 240
SWIDTH 500 0
DWIDTH 12 0
BBX 9 15 1 0
BITMAP
0A00
0400
0A00
0100
FF80
8080
8080
8080
8080
8080
8080
8080
8080
8080
FF80
ENDCHAR
STARTCHAR ntilde
ENCODING 241
SWIDTH 500 0
DWIDTH 12 0
BBX 9 15 1 0
BITMAP
7900
4900
4F00
0000
BF80
C080
8080
8080
8080
8080
8080
8080
8080
8080
8080
ENDCHAR
STARTCHAR ograve
ENCODING 242
SWIDTH 500 0
DWIDTH 12 0
BBX 9 15 1 0
BITMAP
2000
1000
0800
0000
FF80
8080
8080
8080
8080
8080
8080
8080
8080
8080
FF80
ENDCHAR
STARTCHAR oacute
ENCODING 243
SWIDTH 500 0
DWIDTH 12 0
BBX 9 15 1 0
BITMAP
0200
0400
0800
0000
FF80
8080
8080
8080
8080
8080
8080
8080
8080
8080
FF80
ENDCHAR
STARTCHAR ocircumflex
ENCODING 244
SWIDTH 500 0
DWIDTH 12 0
BBX 9 15 1 0
BITMAP
0800
1400
2200
0000
FF80
8080
8080
8080
8080
8080
8080
8080
8080
8080
FF80
ENDCHAR
STARTCHAR otilde
ENCODING 245
SWIDTH 500 0
DWIDTH 12 0
BBX 9 15 1 0
BITMAP
7900
4900
4F00
0000
FF80
8080
8080
8080
8080
8080
8080
8080
8080
8080
FF80
ENDCHAR
STARTCHAR odieresis
ENCODING 246
SWIDTH 500 0
DWIDTH 12 0
BBX 9 15 1 0
BITMAP
2200
2200
2200
0000
FF80
8080
8080
8080
8080
8080
8080
8080
8080
8080
FF80
ENDCHAR
STARTCHAR divide
ENCODING 247
SWIDTH 500 0
DWIDTH 12 0
BBX 9 11 1 2
BITMAP
0800
0800
0800
0000
0000
FF80
0000
0000
0800
0800
0800
ENDCHAR
STARTCHAR oslash
ENCODING 248
SWIDTH 500 0
DWIDTH 12 0
BBX 11 11 0 0
BITMAP
7FE0
4040
40C0
4140
4240
4440
4840
5040
6040
4040
FFC0
ENDCHAR
STARTCHAR ugrave
ENCODING 249
SWIDTH 500 0
DWIDTH 12 0
BBX 9 15 1 0
BITMAP
2000
1000
0800
0000
8080
8080
8080
8080
8080
8080
8080
8080
8080
8180
FE80
ENDCHAR
STARTCHAR uacute
ENCODING 250
SWIDTH 500 0
DWIDTH 12 0
BBX 9 15 1 0
BITMAP
0200
0400
0800
0000
8080
8080
8080
8080
8080
8080
8080
8080
8080
8180
FE80
ENDCHAR
STARTCHAR ucircumflex
ENCODING 251
SWIDTH 500 0
DWIDTH 12 0
BBX 9 15 1 0
BITMAP
0800
1400
2200
0000
8080
8080
8080
8080
8080
8080
8080
8080
8080
8180
FE80
ENDCHAR
STARTCHAR udieresis
ENCODING 252
SWIDTH 500 0
DWIDTH 12 0
BBX 9 15 1 0
BITMAP
2200
2200
2200
0000
8080
8080
8080
8080
8080
8080
8080
8080
8080
8180
FE80
ENDCHAR
STARTCHAR yacute
ENCODING 253
SWIDTH 500 0
DWIDTH 12 0
BBX 9 19 1 -4
BITMAP
0200
0400
0800
0000
8080
8080
8080
8080
8080
8080
8080
8080
8080
8080
FF80
0080
0080
0080
7F80
ENDCHAR
STARTCHAR thorn
ENCODING 254
SWIDTH 500 0
DWIDTH 12 0
BBX 9 19 1 -4
BITMAP
8000
8000
8000
8000
FF80
8080
8080
8080
8080
8080
8080
8080
8080
8080
FF80
8000
8000
8000
8000
ENDCHAR
STARTCHAR ydieresis
ENCODING 255
SWIDTH 500 0
DWIDTH 12 0
BBX 9 19 1 -4
BITMAP
2200
2200
2200
0000
8080
8080
8080
8080
8080
8080
8080
8080
8080
8080
FF80
0080
0080
0080
7F80
ENDCHAR
STARTCHAR Amacron
ENCODING 256
SWIDTH 500 0
DWIDTH 12 0
BBX 9 18 1 0
BITMAP
7F00
0000
0000
0780
0880
1080
2080
4080
8080
8080
8080
FF80
8080
8080
8080
8080
8080
8080
ENDCHAR
STARTCHAR amacron
ENCODING 257
SWIDTH 500 0
DWIDTH 12 0
BBX 9 14 1 0
BITMAP
7F00
0000
0000
7F80
0080
0080
0080
FF80
8080
8080
8080
8080
8080
FF80
ENDCHAR
STARTCHAR Abreve
ENCODING 258
SWIDTH 500 0
DWIDTH 12 0
BBX 9 19 1 0
BITMAP
4100
4100
7F00
0000
0780
0880
1080
2080
4080
8080
8080
8080
FF80
8080
8080
8080
8080
8080
8080
ENDCHAR
STARTCHAR abreve
ENCODING 259
SWIDTH 500 0
DWIDTH 12 0
BBX 9 15 1 0
BITMAP
4100
4100
7F00
0000
7F80
0080
0080
0080
FF80
8080
8080
8080
8080
8080
FF80
ENDCHAR
STARTCHAR Aogonek
ENCODING 260
SWIDTH 500 0
DWIDTH 12 0
BBX 10 19 1 -4
BITMAP
0780
0880
1080
2080
4080
8080
8080
8080
FF80
8080
8080
8080
8080
8080
8080
0180
0200
0200
03C0
ENDCHAR
STARTCHAR aogonek
ENCODING 261
SWIDTH 500 0
DWIDTH 12 0
BBX 10 15 1 -4
BITMAP
7F80
0080
0080
0080
FF80
8080
8080
8080
8080
8080
FF80
0180
0200
0200
03C0
ENDCHAR
STARTCHAR Cacute
ENCODING 262
SWIDTH 500 0
DWIDTH 12 0
BBX 9 19 1 0
BITMAP
0200
0400
0800
0000
FF80
8080
8000
8000
8000
8000
8000
8000
8000
8000
8000
8000
8000
8080
FF80
ENDCHAR
STARTCHAR cacute
ENCODING 263
SWIDTH 500 0
DWIDTH 12 0
BBX 9 15 1 0
BITMAP
0200
0400
0800
0000
FF80
8000
8000
8000
8000
8000
8000
8000
8000
8000
FF80
ENDCHAR
STARTCHAR Ccircumflex
ENCODING 264
SWIDTH 500 0
DWIDTH 12 0
BBX 9 19 1 0
BITMAP
0800
1400
2200
0000
FF80
8080
8000
8000
8000
8000
8000
8000
8000
8000
8000
8000
8000
8080
FF80
ENDCHAR
STARTCHAR ccircumflex
ENCODING 265
SWIDTH 500 0
DWIDTH 12 0
BBX 9 15 1 0
BITMAP
0800
1400
2200
0000
FF80
8000
8000
8000
8000
8000
8000
8000
8000
8000
FF80
ENDCHAR
STARTCHAR Cdotaccent
ENCODING 266
SWIDTH 500 0
DWIDTH 12 0
BBX 9 19 1 0
BITMAP
0800
0800
0800
0000
FF80
8080
8000
8000
8000
8000
8000
8000
8000
8000
8000
8000
8000
8080
FF80
ENDCHAR
STARTCHAR cdotaccent
ENCODING 267
SWIDTH 500 0
DWIDTH 12 0
BBX 9 15 1 0
BITMAP
0800
0800
0800
0000
FF80
8000
8000
8000
8000
8000
8000
8000
8000
8000
FF80
ENDCHAR
STARTCHAR Ccaron
ENCODING 268
SWIDTH 500 0
DWIDTH 12 0
BBX 9 19 1 0
BITMAP
2200
1400
0800
0000
FF80
8080
8000
8000
8000
8000
8000
8000
8000
8000
8000
8000
8000
8080
FF80
ENDCHAR
STARTCHAR ccaron
ENCODING 269
SWIDTH 500 0
DWIDTH 12 0
BBX 9 15 1 0
BITMAP
2200
1400
0800
0000
FF80
8000
8000
8000
8000
8000
8000
8000
8000
8000
FF80
ENDCHAR
STARTCHAR Dcaron
ENCODING 270
SWIDTH 500 0
DWIDTH 12 0
BBX 9 19 1 0
BITMAP
2200
1400
0800
0000
F800
8400
8200
8100
8080
8080
8080
8080
8080
8080
8080
8080
8080
8080
FF00
ENDCHAR
STARTCHAR dcaron
ENCODING 271
SWIDTH 500 0
DWIDTH 12 0
BBX 9 19 1 0
BITMAP
2200
1400
0800
0000
0080
0080
0080
0080
FF80
8080
8080
8080
8080
8080
8080
8080
8080
8080
FF80
ENDCHAR
STARTCHAR Dcroat
ENCODING 272
SWIDTH 500 0
DWIDTH 12 0
BBX 10 15 0 0
BITMAP
7C00
4200
4100
4080
4040
4040
4040
FC40
4040
4040
4040
4040
4040
4040
7F80
ENDCHAR
STARTCHAR dcroat
ENCODING 273
SWIDTH 500 0
DWIDTH 12 0
BBX 10 15 1 0
BITMAP
0080
0FC0
0080
0080
FF80
8080
8080
8080
8080
8080
8080
8080
8080
8080
FF80
ENDCHAR
STARTCHAR Emacron
ENCODING 274
SWIDTH 500 0
DWIDTH 12 0
BBX 9 18 1 0
BITMAP
7F00
0000
0000
FF80
8000
8000
8000
8000
8000
8000
FF00
8000
8000
8000
8000
8000
8000
FF80
ENDCHAR
STARTCHAR emacron
ENCODING 275
SWIDTH 500 0
DWIDTH 12 0
BBX 9 14 1 0
BITMAP
7F00
0000
0000
FF80
8080
8080
8080
8080
FF80
8000
8000
8000
8000
FF00
ENDCHAR
STARTCHAR Ebreve
ENCODING 276
SWIDTH 500 0
DWIDTH 12 0
BBX 9 19 1 0
BITMAP
4100
4100
7F00
0000
FF80
8000
8000
8000
8000
8000
8000
FF00
8000
8000
8000
8000
8000
8000
FF80
ENDCHAR
STARTCHAR ebreve
ENCODING 277
SWIDTH 500 0
DWIDTH 12 0
BBX 9 15 1 0
BITMAP
4100
4100
7F00
0000
FF80
8080
8080
8080
8080
FF80
8000
8000
8000
8000
FF00
ENDCHAR
STARTCHAR Edotaccent
ENCODING 278
SWIDTH 500 0
DWIDTH 12 0
BBX 9 19 1 0
BITMAP
0800
0800
0800
0000
FF80
8000
8000
8000
8000
8000
8000
FF00
8000
8000
8000
8000
8000
8000
FF80
ENDCHAR
STARTCHAR edotaccent
ENCODING 279
SWIDTH 500 0
DWIDTH 12 0
BBX 9 15 1 0
BITMAP
0800
0800
0800
0000
FF80
8080
8080
8080
8080
FF80
8000
8000
8000
8000
FF00
ENDCHAR
STARTCHAR Eogonek
ENCODING 280
SWIDTH 500 0
DWIDTH 12 0
BBX 10 19 1 -4
BITMAP
FF80
8000
8000
8000
8000
8000
8000
FF00
8000
8000
8000
8000
8000
8000
FF80
0180
0200
0200
03C0
ENDCHAR
STARTCHAR eogonek
ENCODING 281
SWIDTH 500 0
DWIDTH 12 0
BBX 9 15 1 -4
BITMAP
FF80
8080
8080
8080
8080
FF80
8000
8000
8000
8000
FF00
0C00
1000
1000
1E00
ENDCHAR
STARTCHAR Ecaron
ENCODING 282
SWIDTH 500 0
DWIDTH 12 0
BBX 9 19 1 0
BITMAP
2200
1400
0800
0000
FF80
8000
8000
8000
8000
8000
8000
FF00
8000
8000
8000
8000
8000
8000
FF80
ENDCHAR
STARTCHAR ecaron
ENCODING 283
SWIDTH 500 0
DWIDTH 12 0
BBX 9 15 1 0
BITMAP
2200
1400
0800
0000
FF80
8080
8080
8080
8080
FF80
8000
8000
8000
8000
FF00
ENDCHAR
STARTCHAR Gcircumflex
ENCODING 284
SWIDTH 500 0
DWIDTH 12 0
BBX 9 19 1 0
BITMAP
0800
1400
2200
0000
FF80
8080
8000
8000
8000
8000
8000
8380
8080
8080
8080
8080
8080
8080
FF80
ENDCHAR
STARTCHAR gcircumflex
ENCODING 285
SWIDTH 500 0
DWIDTH 12 0
BBX 9 19 1 -4
BITMAP
0800
1400
2200
0000
FF80
8080
8080
8080
8080
8080
8080
8080
8080
8080
FF80
0080
0080
0080
7F80
ENDCHAR
STARTCHAR Gbreve
ENCODING 286
SWIDTH 500 0
DWIDTH 12 0
BBX 9 19 1 0
BITMAP
4100
4100
7F00
0000
FF80
8080
8000
8000
8000
8000
8000
8380
8080
8080
8080
8080
8080
8080
FF80
ENDCHAR
STARTCHAR gbreve
ENCODING 287
SWIDTH 500 0
DWIDTH 12 0
BBX 9 19 1 -4
BITMAP
4100
4100
7F00
0000
FF80
8080
8080
8080
8080
8080
8080
8080
8080
8080
FF80
0080
0080
0080
7F80
ENDCHAR
STARTCHAR Gdotaccent
ENCODING 288
SWIDTH 500 0
DWIDTH 12 0
BBX 9 19 1 0
BITMAP
0800
0800
0800
0000
FF80
8080
8000
8000
8000
8000
8000
8380
8080
8080
8080
8080
8080
8080
FF80
ENDCHAR
STARTCHAR gdotaccent
ENCODING 289
SWIDTH 500 0
DWIDTH 12 0
BBX 9 19 1 -4
BITMAP
0400
0400
0400
0000
FF80
8080
8080
8080
8080
8080
8080
8080
8080
8080
FF80
0080
0080
0080
7F80
ENDCHAR
STARTCHAR Gcommaaccent
ENCODING 290
SWIDTH 500 0
DWIDTH 12 0
BBX 9 20 1 -5
BITMAP
FF80
8080
8000
8000
8000
8000
8000
8380
8080
8080
8080
8080
8080
8080
FF80
0000
0800
0800
0800
1000
ENDCHAR
STARTCHAR gcommaaccent
ENCODING 291
SWIDTH 500 0
DWIDTH 12 0
BBX 9 20 1 -4
BITMAP
0200
0400
0400
0400
0000
FF80
8080
8080
8080
8080
8080
8080
8080
8080
8080
FF80
0080
0080
0080
7F80
ENDCHAR
STARTCHAR Hcircumflex
ENCODING 292
SWIDTH 500 0
DWIDTH 12 0
BBX 9 19 1 0
BITMAP
0800
1400
2200
0000
8080
8080
8080
8080
8080
8080
8080
FF80
8080
8080
8080
8080
8080
8080
8080
ENDCHAR
STARTCHAR hcircumflex
ENCODING 293
SWIDTH 500 0
DWIDTH 12 0
BBX 9 19 1 0
BITMAP
0800
1400
2200
0000
8000
8000
8000
8000
FF80
8080
8080
8080
8080
8080
8080
8080
8080
8080
8080
ENDCHAR
STARTCHAR Hbar
ENCODING 294
SWIDTH 500 0
DWIDTH 12 0
BBX 11 15 0 0
BITMAP
4040
4040
4040
FFE0
4040
4040
4040
7FC0
4040
4040
4040
4040
4040
4040
4040
ENDCHAR
STARTCHAR hbar
ENCODING 295
SWIDTH 500 0
DWIDTH 12 0
BBX 10 15 0 0
BITMAP
4000
FC00
4000
4000
7FC0
4040
4040
4040
4040
4040
4040
4040
4040
4040
4040
ENDCHAR
STARTCHAR Itilde
ENCODING 296
SWIDTH 500 0
DWIDTH 12 0
BBX 7 19 2 0
BITMAP
F2
92
9E
00
7C
10
10
10
10
10
10
10
10
10
14
14
14
14
7C
ENDCHAR
STARTCHAR itilde
ENCODING 297
SWIDTH 500 0
DWIDTH 12 0
BBX 7 15 2 0
BITMAP
F2
92
9E
00
70
10
10
10
10
10
14
14
14
14
7C
ENDCHAR
STARTCHAR Imacron
ENCODING 298
SWIDTH 500 0
DWIDTH 12 0
BBX 7 18 2 0
BITMAP
FE
00
00
7C
10
10
10
10
10
10
10
10
10
14
14
14
14
7C
ENDCHAR
STARTCHAR imacron
ENCODING 299
SWIDTH 500 0
DWIDTH 12 0
BBX 7 14 2 0
BITMAP
FE
00
00
70
10
10
10
10
10
14
14
14
14
7C
ENDCHAR
STARTCHAR Ibreve
ENCODING 300
SWIDTH 500 0
DWIDTH 12 0
BBX 7 19 2 0
BITMAP
82
82
FE
00
7C
10
10
10
10
10
10
10
10
10
14
14
14
14
7C
ENDCHAR
STARTCHAR ibreve
ENCODING 301
SWIDTH 500 0
DWIDTH 12 0
BBX 7 15 2 0
BITMAP
82
82
FE
00
70
10
10
10
10
10
14
14
14
14
7C
ENDCHAR
STARTCHAR Iogonek
ENCODING 302
SWIDTH 500 0
DWIDTH 12 0
BBX 5 19 3 -4
BITMAP
F8
20
20
20
20
20
20
20
20
20
28
28
28
28
F8
20
40
40
78
ENDCHAR
STARTCHAR iogonek
ENCODING 303
SWIDTH 500 0
DWIDTH 12 0
BBX 5 19 3 -4
BITMAP
20
20
20
00
E0
20
20
20
20
20
28
28
28
28
F8
20
40
40
78
ENDCHAR
STARTCHAR Idotaccent
ENCODING 304
SWIDTH 500 0
DWIDTH 12 0
BBX 5 19 3 0
BITMAP
20
20
20
00
F8
20
20
20
20
20
20
20
20
20
28
28
28
28
F8
ENDCHAR
STARTCHAR dotlessi
ENCODING 305
SWIDTH 500 0
DWIDTH 12 0
BBX 5 11 3 0
BITMAP
E0
20
20
20
20
20
28
28
28
28
F8
ENDCHAR
STARTCHAR IJ
ENCODING 306
SWIDTH 500 0
DWIDTH 12 0
BBX 11 15 0 0
BITMAP
E0E0
4040
4040
4040
4040
4040
4040
4040
4040
4040
5040
5040
5040
5440
F7C0
ENDCHAR
STARTCHAR ij
ENCODING 307
SWIDTH 500 0
DWIDTH 12 0
BBX 10 19 1 -4
BITMAP
4040
4040
4040
0000
C0C0
4040
4040
4040
4040
4040
5040
5040
5040
5040
F040
0040
0040
0840
0FC0
ENDCHAR
STARTCHAR Jcircumflex
ENCODING 308
SWIDTH 500 0
DWIDTH 12 0
BBX 10 19 1 0
BITMAP
0100
0280
0440
0000
07C0
0100
0100
0100
0100
0100
0100
0100
0100
0100
0100
0100
0100
8100
FF00
ENDCHAR
STARTCHAR jcircumflex
ENCODING 309
SWIDTH 500 0
DWIDTH 12 0
BBX 9 19 2 -4
BITMAP
0200
0500
0880
0000
0E00
0200
0200
0200
0200
0200
0200
0200
0200
0200
0200
0200
0200
8200
FE00
ENDCHAR
STARTCHAR Kcommaaccent
ENCODING 310
SWIDTH 500 0
DWIDTH 12 0
BBX 9 20 1 -5
BITMAP
8180
8200
8400
8800
9000
A000
C000
FF80
8080
8080
8080
8080
8080
8080
8080
0000
0800
0800
0800
1000
ENDCHAR
STARTCHAR kcommaaccent
ENCODING 311
SWIDTH 500 0
DWIDTH 12 0
BBX 8 20 2 -5
BITMAP
80
80
80
80
81
82
84
88
90
FF
81
81
81
81
81
00
10
10
10
20
ENDCHAR
STARTCHAR kgreenlandic
ENCODING 312
SWIDTH 500 0
DWIDTH 12 0
BBX 8 11 2 0
BITMAP
81
82
84
88
90
FF
81
81
81
81
81
ENDCHAR
STARTCHAR Lacute
ENCODING 313
SWIDTH 500 0
DWIDTH 12 0
BBX 9 19 1 0
BITMAP
2000
4000
8000
0000
8000
8000
8000
8000
8000
8000
8000
8000
8000
8000
8000
8000
8000
8080
FF80
ENDCHAR
STARTCHAR lacute
ENCODING 314
SWIDTH 500 0
DWIDTH 12 0
BBX 5 19 3 0
BITMAP
08
10
20
00
E0
20
20
20
20
20
20
20
20
20
28
28
28
28
F8
ENDCHAR
STARTCHAR Lcommaaccent
ENCODING 315
SWIDTH 500 0
DWIDTH 12 0
BBX 9 20 1 -5
BITMAP
8000
8000
8000
8000
8000
8000
8000
8000
8000
8000
8000
8000
8000
8080
FF80
0000
0800
0800
0800
1000
ENDCHAR
STARTCHAR lcommaaccent
ENCODING 316
SWIDTH 500 0
DWIDTH 12 0
BBX 5 20 3 -5
BITMAP
E0
20
20
20
20
20
20
20
20
20
28
28
28
28
F8
00
20
20
20
40
ENDCHAR
STARTCHAR Lcaron
ENCODING 317
SWIDTH 500 0
DWIDTH 12 0
BBX 9 19 1 0
BITMAP
2200
1400
0800
0000
8000
8000
8000
8000
8000
8000
8000
8000
8000
8000
8000
8000
8000
8080
FF80
ENDCHAR
STARTCHAR lcaron
ENCODING 318
SWIDTH 500 0
DWIDTH 12 0
BBX 5 19 3 0
BITMAP
88
50
20
00
E0
20
20
20
20
20
20
20
20
20
28
28
28
28
F8
ENDCHAR
STARTCHAR Ldot
ENCODING 319
SWIDTH 500 0
DWIDTH 12 0
BBX 9 15 1 0
BITMAP
8000
8000
8000
8000
8000
8000
8200
8200
8200
8000
8000
8000
8000
8080
FF80
ENDCHAR
STARTCHAR ldot
ENCODING 320
SWIDTH 500 0
DWIDTH 12 0
BBX 9 15 3 0
BITMAP
E000
2000
2000
2000
2000
2000
2080
2080
2080
2000
2800
2800
2800
2800
F800
ENDCHAR
STARTCHAR Lslash
ENCODING 321
SWIDTH 500 0
DWIDTH 12 0
BBX 11 15 0 0
BITMAP
2000
2000
2000
2000
2000
2800
3000
2000
6000
A000
2000
2000
2000
2020
3FE0
ENDCHAR
STARTCHAR lslash
ENCODING 322
SWIDTH 500 0
DWIDTH 12 0
BBX 5 15 3 0
BITMAP
E0
20
20
20
20
28
30
20
60
A0
28
28
28
28
F8
ENDCHAR
STARTCHAR Nacute
ENCODING 323
SWIDTH 500 0
DWIDTH 12 0
BBX 9 19 1 0
BITMAP
0200
0400
0800
0000
9F80
A080
C080
8080
8080
8080
8080
8080
8080
8080
8080
8080
8080
8080
8080
ENDCHAR
STARTCHAR nacute
ENCODING 324
SWIDTH 500 0
DWIDTH 12 0
BBX 9 15 1 0
BITMAP
0200
0400
0800
0000
BF80
C080
8080
8080
8080
8080
8080
8080
8080
8080
8080
ENDCHAR
STARTCHAR Ncommaaccent
ENCODING 325
SWIDTH 500 0
DWIDTH 12 0
BBX 9 20 1 -5
BITMAP
9F80
A080
C080
8080
8080
8080
8080
8080
8080
8080
8080
8080
8080
8080
8080
0000
0800
0800
0800
1000
ENDCHAR
STARTCHAR ncommaaccent
ENCODING 326
SWIDTH 500 0
DWIDTH 12 0
BBX 9 16 1 -5
BITMAP
BF80
C080
8080
8080
8080
8080
8080
8080
8080
8080
8080
0000
0800
0800
0800
1000
ENDCHAR
STARTCHAR Ncaron
ENCODING 327
SWIDTH 500 0
DWIDTH 12 0
BBX 9 19 1 0
BITMAP
2200
1400
0800
0000
9F80
A080
C080
8080
8080
8080
8080
8080
8080
8080
8080
8080
8080
8080
8080
ENDCHAR
STARTCHAR ncaron
ENCODING 328
SWIDTH 500 0
DWIDTH 12 0
BBX 9 15 1 0
BITMAP
2200
1400
0800
0000
BF80
C080
8080
8080
8080
8080
8080
8080
8080
8080
8080
ENDCHAR
STARTCHAR napostrophe
ENCODING 329
SWIDTH 500 0
DWIDTH 12 0
BBX 10 17 0 0
BITMAP
4000
4000
4000
4000
8000
0000
5FC0
6040
4040
4040
4040
4040
4040
4040
4040
4040
4040
ENDCHAR
STARTCHAR Eng
ENCODING 330
SWIDTH 500 0
DWIDTH 12 0
BBX 9 19 1 -4
BITMAP
9F80
A080
C080
8080
8080
8080
8080
8080
8080
8080
8080
8080
8080
8080
8080
0080
0080
0080
0100
ENDCHAR
STARTCHAR eng
ENCODING 331
SWIDTH 500 0
DWIDTH 12 0
BBX 9 15 1 -4
BITMAP
BF80
C080
8080
8080
8080
8080
8080
8080
8080
8080
8080
0080
0080
0080
0100
ENDCHAR
STARTCHAR Omacron
ENCODING 332
SWIDTH 500 0
DWIDTH 12 0
BBX 9 18 1 0
BITMAP
7F00
0000
0000
FF80
8080
8080
8080
8080
8080
8080
8080
8080
8080
8080
8080
8080
8080
FF80
ENDCHAR
STARTCHAR omacron
ENCODING 333
SWIDTH 500 0
DWIDTH 12 0
BBX 9 14 1 0
BITMAP
7F00
0000
0000
FF80
8080
8080
8080
8080
8080
8080
8080
8080
8080
FF80
ENDCHAR
STARTCHAR Obreve
ENCODING 334
SWIDTH 500 0
DWIDTH 12 0
BBX 9 19 1 0
BITMAP
4100
4100
7F00
0000
FF80
8080
8080
8080
8080
8080
8080
8080
8080
8080
8080
8080
8080
8080
FF80
ENDCHAR
STARTCHAR obreve
ENCODING 335
SWIDTH 500 0
DWIDTH 12 0
BBX 9 15 1 0
BITMAP
4100
4100
7F00
0000
FF80
8080
8080
8080
8080
8080
8080
8080
8080
8080
FF80
ENDCHAR
STARTCHAR Ohungarumlaut
ENCODING 336
SWIDTH 500 0
DWIDTH 12 0
BBX 9 19 1 0
BITMAP
0880
1100
2200
0000
FF80
8080
8080
8080
8080
8080
8080
8080
8080
8080
8080
8080
8080
8080
FF80
ENDCHAR
STARTCHAR ohungarumlaut
ENCODING 337
SWIDTH 500 0
DWIDTH 12 0
BBX 9 15 1 0
BITMAP
0880
1100
2200
0000
FF80
8080
8080
8080
8080
8080
8080
8080
8080
8080
FF80
ENDCHAR
STARTCHAR OE
ENCODING 338
SWIDTH 500 0
DWIDTH 12 0
BBX 11 15 0 0
BITMAP
FFE0
8400
8400
8400
8400
8400
8400
87C0
8400
8400
8400
8400
8400
8400
FFE0
ENDCHAR
STARTCHAR oe
ENCODING 339
SWIDTH 500 0
DWIDTH 12 0
BBX 11 11 0 0
BITMAP
FFE0
8420
8420
8420
8420
87E0
8400
8400
8400
8400
FFC0
ENDCHAR
STARTCHAR Racute
ENCODING 340
SWIDTH 500 0
DWIDTH 12 0
BBX 9 19 1 0
BITMAP
0200
0400
0800
0000
FF80
8080
8080
8080
8080
8080
8080
FF80
8400
8200
8200
8100
8100
8080
8080
ENDCHAR
STARTCHAR racute
ENCODING 341
SWIDTH 500 0
DWIDTH 12 0
BBX 9 15 1 0
BITMAP
0200
0400
0800
0000
FF80
8080
8000
8000
8000
8000
8000
8000
8000
8000
8000
ENDCHAR
STARTCHAR Rcommaaccent
ENCODING 342
SWIDTH 500 0
DWIDTH 12 0
BBX 9 20 1 -5
BITMAP
FF80
8080
8080
8080
8080
8080
8080
FF80
8400
8200
8200
8100
8100
8080
8080
0000
0800
0800
0800
1000
ENDCHAR
STARTCHAR rcommaaccent
ENCODING 343
SWIDTH 500 0
DWIDTH 12 0
BBX 10 16 0 -5
BITMAP
7FC0
4040
4000
4000
4000
4000
4000
4000
4000
4000
4000
0000
4000
4000
4000
8000
ENDCHAR
STARTCHAR Rcaron
ENCODING 344
SWIDTH 500 0
DWIDTH 12 0
BBX 9 19 1 0
BITMAP
2200
1400
0800
0000
FF80
8080
8080
8080
8080
8080
8080
FF80
8400
8200
8200
8100
8100
8080
8080
ENDCHAR
STARTCHAR rcaron
ENCODING 345
SWIDTH 500 0
DWIDTH 12 0
BBX 9 15 1 0
BITMAP
2200
1400
0800
0000
FF80
8080
8000
8000
8000
8000
8000
8000
8000
8000
8000
ENDCHAR
STARTCHAR Sacute
ENCODING 346
SWIDTH 500 0
DWIDTH 12 0
BBX 9 19 1 0
BITMAP
0200
0400
0800
0000
FF80
8080
8000
8000
8000
8000
8000
FF80
0080
0080
0080
0080
0080
8080
FF80
ENDCHAR
STARTCHAR sacute
ENCODING 347
SWIDTH 500 0
DWIDTH 12 0
BBX 9 15 1 0
BITMAP
0200
0400
0800
0000
FF80
8000
8000
8000
8000
FF80
0080
0080
0080
0080
FF80
ENDCHAR
STARTCHAR Scircumflex
ENCODING 348
SWIDTH 500 0
DWIDTH 12 0
BBX 9 19 1 0
BITMAP
0800
1400
2200
0000
FF80
8080
8000
8000
8000
8000
8000
FF80
0080
0080
0080
0080
0080
8080
FF80
ENDCHAR
STARTCHAR scircumflex
ENCODING 349
SWIDTH 500 0
DWIDTH 12 0
BBX 9 15 1 0
BITMAP
0800
1400
2200
0000
FF80
8000
8000
8000
8000
FF80
0080
0080
0080
0080
FF80
ENDCHAR
STARTCHAR Scedilla
ENCODING 350
SWIDTH 500 0
DWIDTH 12 0
BBX 9 19 1 -4
BITMAP
FF80
8080
8000
8000
8000
8000
8000
FF80
0080
0080
0080
0080
0080
8080
FF80
0800
0800
0800
1000
ENDCHAR
STARTCHAR scedilla
ENCODING 351
SWIDTH 500 0
DWIDTH 12 0
BBX 9 15 1 -4
BITMAP
FF80
8000
8000
8000
8000
FF80
0080
0080
0080
0080
FF80
0800
0800
0800
1000
ENDCHAR
STARTCHAR Scaron
ENCODING 352
SWIDTH 500 0
DWIDTH 12 0
BBX 9 19 1 0
BITMAP
2200
1400
0800
0000
FF80
8080
8000
8000
8000
8000
8000
FF80
0080
0080
0080
0080
0080
8080
FF80
ENDCHAR
STARTCHAR scaron
ENCODING 353
SWIDTH 500 0
DWIDTH 12 0
BBX 9 15 1 0
BITMAP
2200
1400
0800
0000
FF80
8000
8000
8000
8000
FF80
0080
0080
0080
0080
FF80
ENDCHAR
STARTCHAR Tcedilla
ENCODING 354
SWIDTH 500 0
DWIDTH 12 0
BBX 9 19 1 -4
BITMAP
FF80
0800
0800
0800
0800
0800
0800
0800
0800
0800
0800
0800
0800
0800
0800
0400
0400
0400
0800
ENDCHAR
STARTCHAR tcedilla
ENCODING 355
SWIDTH 500 0
DWIDTH 12 0
BBX 7 19 3 -4
BITMAP
20
20
20
20
FC
20
20
20
20
20
20
20
20
20
3E
08
08
08
10
ENDCHAR
STARTCHAR Tcaron
ENCODING 356
SWIDTH 500 0
DWIDTH 12 0
BBX 9 19 1 0
BITMAP
2200
1400
0800
0000
FF80
0800
0800
0800
0800
0800
0800
0800
0800
0800
0800
0800
0800
0800
0800
ENDCHAR
STARTCHAR tcaron
ENCODING 357
SWIDTH 500 0
DWIDTH 12 0
BBX 7 19 3 0
BITMAP
88
50
20
00
20
20
20
20
FC
20
20
20
20
20
20
20
20
20
3E
ENDCHAR
STARTCHAR Tbar
ENCODING 358
SWIDTH 500 0
DWIDTH 12 0
BBX 9 15 1 0
BITMAP
FF80
0800
0800
0800
0800
0800
7F00
0800
0800
0800
0800
0800
0800
0800
0800
ENDCHAR
STARTCHAR tbar
ENCODING 359
SWIDTH 500 0
DWIDTH 12 0
BBX 7 15 3 0
BITMAP
20
20
20
20
FC
20
20
F8
20
20
20
20
20
20
3E
ENDCHAR
STARTCHAR Utilde
ENCODING 360
SWIDTH 500 0
DWIDTH 12 0
BBX 9 19 1 0
BITMAP
7900
4900
4F00
0000
8080
8080
8080
8080
8080
8080
8080
8080
8080
8080
8080
8080
8180
8280
FC80
ENDCHAR
STARTCHAR utilde
ENCODING 361
SWIDTH 500 0
DWIDTH 12 0
BBX 9 15 1 0
BITMAP
7900
4900
4F00
0000
8080
8080
8080
8080
8080
8080
8080
8080
8080
8180
FE80
ENDCHAR
STARTCHAR Umacron
ENCODING 362
SWIDTH 500 0
DWIDTH 12 0
BBX 9 18 1 0
BITMAP
7F00
0000
0000
8080
8080
8080
8080
8080
8080
8080
8080
8080
8080
8080
8080
8180
8280
FC80
ENDCHAR
STARTCHAR umacron
ENCODING 363
SWIDTH 500 0
DWIDTH 12 0
BBX 9 14 1 0
BITMAP
7F00
0000
0000
8080
8080
8080
8080
8080
8080
8080
8080
8080
8180
FE80
ENDCHAR
STARTCHAR Ubreve
ENCODING 364
SWIDTH 500 0
DWIDTH 12 0
BBX 9 19 1 0
BITMAP
4100
4100
7F00
0000
8080
8080
8080
8080
8080
8080
8080
8080
8080
8080
8080
8080
8180
8280
FC80
ENDCHAR
STARTCHAR ubreve
ENCODING 365
SWIDTH 500 0
DWIDTH 12 0
BBX 9 15 1 0
BITMAP
4100
4100
7F00
0000
8080
8080
8080
8080
8080
8080
8080
8080
8080
8180
FE80
ENDCHAR
STARTCHAR Uring
ENCODING 366
SWIDTH 500 0
DWIDTH 12 0
BBX 9 19 1 0
BITMAP
3E00
2200
2200
3E00
8080
8080
8080
8080
8080
8080
8080
8080
8080
8080
8080
8080
8180
8280
FC80
ENDCHAR
STARTCHAR uring
ENCODING 367
SWIDTH 500 0
DWIDTH 12 0
BBX 9 15 1 0
BITMAP
3E00
2200
2200
3E00
8080
8080
8080
8080
8080
8080
8080
8080
8080
8180
FE80
ENDCHAR
STARTCHAR Uhungarumlaut
ENCODING 368
SWIDTH 500 0
DWIDTH 12 0
BBX 9 19 1 0
BITMAP
0880
1100
2200
0000
8080
8080
8080
8080
8080
8080
8080
8080
8080
8080
8080
8080
8180
8280
FC80
ENDCHAR
STARTCHAR uhungarumlaut
ENCODING 369
SWIDTH 500 0
DWIDTH 12 0
BBX 9 15 1 0
BITMAP
0880
1100
2200
0000
8080
8080
8080
8080
8080
8080
8080
8080
8080
8180
FE80
ENDCHAR
STARTCHAR Uogonek
ENCODING 370
SWIDTH 500 0
DWIDTH 12 0
BBX 10 19 1 -4
BITMAP
8080
8080
8080
8080
8080
8080
8080
8080
8080
8080
8080
8080
8180
8280
FC80
0180
0200
0200
03C0
ENDCHAR
STARTCHAR uogonek
ENCODING 371
SWIDTH 500 0
DWIDTH 12 0
BBX 10 15 1 -4
BITMAP
8080
8080
8080
8080
8080
8080
8080
8080
8080
8180
FE80
0180
0200
0200
03C0
ENDCHAR
STARTCHAR Wcircumflex
ENCODING 372
SWIDTH 500 0
DWIDTH 12 0
BBX 10 19 1 0
BITMAP
0800
1400
2200
0000
8040
8040
8040
8040
8040
8040
8440
8440
8440
8440
8440
8440
8440
8440
FFC0
ENDCHAR
STARTCHAR wcircumflex
ENCODING 373
SWIDTH 500 0
DWIDTH 12 0
BBX 9 15 1 0
BITMAP
0800
1400
2200
0000
8080
8080
8080
8080
8880
8880
8880
8880
8880
8880
FF80
ENDCHAR
STARTCHAR afii10037
ENCODING 376
SWIDTH 500 0
DWIDTH 12 0
BBX 9 19 1 0
BITMAP
2200
2200
2200
0000
8080
8080
8080
8080
8080
8080
8080
8080
FF80
0080
0080
0080
0080
0080
7F80
ENDCHAR
STARTCHAR Zacute
ENCODING 377
SWIDTH 500 0
DWIDTH 12 0
BBX 9 19 1 0
BITMAP
0200
0400
0800
0000
FF80
0080
0080
0080
0100
0200
0400
0800
1000
2000
4000
8000
8000
8000
FF80
ENDCHAR
STARTCHAR zacute
ENCODING 378
SWIDTH 500 0
DWIDTH 12 0
BBX 9 15 1 0
BITMAP
0200
0400
0800
0000
FF80
0080
0100
0200
0400
0800
1000
2000
4000
8000
FF80
ENDCHAR
STARTCHAR Zdotaccent
ENCODING 379
SWIDTH 500 0
DWIDTH 12 0
BBX 9 19 1 0
BITMAP
0800
0800
0800
0000
FF80
0080
0080
0080
0100
0200
0400
0800
1000
2000
4000
8000
8000
8000
FF80
ENDCHAR
STARTCHAR zdotaccent
ENCODING 380
SWIDTH 500 0
DWIDTH 12 0
BBX 9 15 1 0
BITMAP
0800
0800
0800
0000
FF80
0080
0100
0200
0400
0800
1000
2000
4000
8000
FF80
ENDCHAR
STARTCHAR Zcaron
ENCODING 381
SWIDTH 500 0
DWIDTH 12 0
BBX 9 19 1 0
BITMAP
2200
1400
0800
0000
FF80
0080
0080
0080
0100
0200
0400
0800
1000
2000
4000
8000
8000
8000
FF80
ENDCHAR
STARTCHAR zcaron
ENCODING 382
SWIDTH 500 0
DWIDTH 12 0
BBX 9 15 1 0
BITMAP
2200
1400
0800
0000
FF80
0080
0100
0200
0400
0800
1000
2000
4000
8000
FF80
ENDCHAR
STARTCHAR Schwa
ENCODING 399
SWIDTH 500 0
DWIDTH 12 0
BBX 9 15 1 0
BITMAP
3F80
0080
0080
0080
0080
0080
0080
FF80
8080
8080
8080
8080
8080
8080
FF80
ENDCHAR
STARTCHAR florin
ENCODING 402
SWIDTH 500 0
DWIDTH 12 0
BBX 9 19 1 -4
BITMAP
0F80
0880
0880
0800
0800
0800
3F00
0800
0800
0800
0800
0800
0800
0800
0800
0800
8800
8800
F800
ENDCHAR
STARTCHAR Ezh
ENCODING 439
SWIDTH 500 0
DWIDTH 12 0
BBX 9 15 1 0
BITMAP
FF80
0080
0100
0200
0400
0800
1F80
0080
0080
0080
0080
0080
0080
0080
FF80
ENDCHAR
STARTCHAR Scommaaccent
ENCODING 536
SWIDTH 500 0
DWIDTH 12 0
BBX 9 20 1 -5
BITMAP
FF80
8080
8000
8000
8000
8000
8000
FF80
0080
0080
0080
0080
0080
8080
FF80
0000
0800
0800
0800
1000
ENDCHAR
STARTCHAR scommaaccent
ENCODING 537
SWIDTH 500 0
DWIDTH 12 0
BBX 9 16 1 -5
BITMAP
FF80
8000
8000
8000
8000
FF80
0080
0080
0080
0080
FF80
0000
0800
0800
0800
1000
ENDCHAR
STARTCHAR Tcommaaccent
ENCODING 538
SWIDTH 500 0
DWIDTH 12 0
BBX 9 20 1 -5
BITMAP
FF80
0800
0800
0800
0800
0800
0800
0800
0800
0800
0800
0800
0800
0800
0800
0000
0800
0800
0800
1000
ENDCHAR
STARTCHAR tcommaaccent
ENCODING 539
SWIDTH 500 0
DWIDTH 12 0
BBX 7 20 3 -5
BITMAP
20
20
20
20
FC
20
20
20
20
20
20
20
20
20
3E
00
08
08
08
10
ENDCHAR
STARTCHAR afii10037
ENCODING 562
SWIDTH 500 0
DWIDTH 12 0
BBX 9 18 1 0
BITMAP
7F00
0000
0000
8080
8080
8080
8080
8080
8080
8080
8080
FF80
0080
0080
0080
0080
0080
7F80
ENDCHAR
STARTCHAR uni0233
ENCODING 563
SWIDTH 500 0
DWIDTH 12 0
BBX 9 18 1 -4
BITMAP
7F00
0000
0000
8080
8080
8080
8080
8080
8080
8080
8080
8080
8080
FF80
0080
0080
0080
7F80
ENDCHAR
STARTCHAR uni0237
ENCODING 567
SWIDTH 500 0
DWIDTH 12 0
BBX 7 15 2 -4
BITMAP
0E
02
02
02
02
02
02
02
02
02
02
02
02
82
FE
ENDCHAR
STARTCHAR schwa
ENCODING 601
SWIDTH 500 0
DWIDTH 12 0
BBX 9 11 1 0
BITMAP
7F80
0080
0080
0080
0080
FF80
8080
8080
8080
8080
FF80
ENDCHAR
STARTCHAR ezh
ENCODING 658
SWIDTH 500 0
DWIDTH 12 0
BBX 9 15 1 -4
BITMAP
FF80
0080
0100
0200
0400
0800
1F80
0080
0080
0080
0080
0080
0080
0080
FF80
ENDCHAR
STARTCHAR commaturnedmod
ENCODING 699
SWIDTH 500 0
DWIDTH 12 0
BBX 2 4 5 15
BITMAP
40
80
80
80
ENDCHAR
STARTCHAR afii57929
ENCODING 700
SWIDTH 500 0
DWIDTH 12 0
BBX 2 4 4 15
BITMAP
40
40
40
80
ENDCHAR
STARTCHAR afii64937
ENCODING 701
SWIDTH 500 0
DWIDTH 12 0
BBX 2 4 5 15
BITMAP
80
80
80
40
ENDCHAR
STARTCHAR circumflex
ENCODING 710
SWIDTH 500 0
DWIDTH 12 0
BBX 5 3 3 16
BITMAP
20
50
88
ENDCHAR
STARTCHAR caron
ENCODING 711
SWIDTH 500 0
DWIDTH 12 0
BBX 5 3 3 16
BITMAP
88
50
20
ENDCHAR
STARTCHAR breve
ENCODING 728
SWIDTH 500 0
DWIDTH 12 0
BBX 7 3 2 16
BITMAP
82
82
FE
ENDCHAR
STARTCHAR dotaccent
ENCODING 729
SWIDTH 500 0
DWIDTH 12 0
BBX 1 3 5 16
BITMAP
80
80
80
ENDCHAR
STARTCHAR ogonek
ENCODING 731
SWIDTH 500 0
DWIDTH 12 0
BBX 4 4 7 -4
BITMAP
60
80
80
F0
ENDCHAR
STARTCHAR tilde
ENCODING 732
SWIDTH 500 0
DWIDTH 12 0
BBX 7 3 2 16
BITMAP
F2
92
9E
ENDCHAR
STARTCHAR hungarumlaut
ENCODING 733
SWIDTH 500 0
DWIDTH 12 0
BBX 7 3 3 16
BITMAP
22
44
88
ENDCHAR
STARTCHAR gravecomb
ENCODING 768
SWIDTH 500 0
DWIDTH 12 0
BBX 3 3 3 16
BITMAP
80
40
20
ENDCHAR
STARTCHAR acutecomb
ENCODING 769
SWIDTH 500 0
DWIDTH 12 0
BBX 3 3 5 16
BITMAP
20
40
80
ENDCHAR
STARTCHAR tonos
ENCODING 900
SWIDTH 500 0
DWIDTH 12 0
BBX 3 3 0 15
BITMAP
20
40
80
ENDCHAR
STARTCHAR dieresistonos
ENCODING 901
SWIDTH 500 0
DWIDTH 12 0
BBX 5 7 3 12
BITMAP
08
10
20
00
88
88
88
ENDCHAR
STARTCHAR Alphatonos
ENCODING 902
SWIDTH 500 0
DWIDTH 12 0
BBX 10 18 0 0
BITMAP
2000
4000
8000
03C0
0440
0840
1040
2040
4040
4040
4040
7FC0
4040
4040
4040
4040
4040
4040
ENDCHAR
STARTCHAR anoteleia
ENCODING 903
SWIDTH 500 0
DWIDTH 12 0
BBX 1 3 5 8
BITMAP
80
80
80
ENDCHAR
STARTCHAR Epsilontonos
ENCODING 904
SWIDTH 500 0
DWIDTH 12 0
BBX 10 18 0 0
BITMAP
2000
4000
8000
7FC0
4000
4000
4000
4000
4000
4000
7F80
4000
4000
4000
4000
4000
4000
7FC0
ENDCHAR
STARTCHAR Etatonos
ENCODING 905
SWIDTH 500 0
DWIDTH 12 0
BBX 10 18 0 0
BITMAP
2000
4000
8000
4040
4040
4040
4040
4040
4040
4040
7FC0
4040
4040
4040
4040
4040
4040
4040
ENDCHAR
STARTCHAR Iotatonos
ENCODING 906
SWIDTH 500 0
DWIDTH 12 0
BBX 8 18 0 0
BITMAP
20
40
80
1F
04
04
04
04
04
04
04
04
04
05
05
05
05
1F
ENDCHAR
STARTCHAR Omicrontonos
ENCODING 908
SWIDTH 500 0
DWIDTH 12 0
BBX 10 18 0 0
BITMAP
2000
4000
8000
7FC0
4040
4040
4040
4040
4040
4040
4040
4040
4040
4040
4040
4040
4040
7FC0
ENDCHAR
STARTCHAR Upsilontonos
ENCODING 910
SWIDTH 500 0
DWIDTH 12 0
BBX 11 18 0 0
BITMAP
2000
4000
8000
2020
2020
1040
1040
0880
0880
0500
0200
0200
0200
0200
0200
0200
0200
0200
ENDCHAR
STARTCHAR Omegatonos
ENCODING 911
SWIDTH 500 0
DWIDTH 12 0
BBX 10 18 0 0
BITMAP
2000
4000
8000
7FC0
4040
4040
4040
4040
4040
4040
4040
4040
4040
4040
71C0
1100
1100
71C0
ENDCHAR
STARTCHAR iotadieresistonos
ENCODING 912
SWIDTH 500 0
DWIDTH 12 0
BBX 5 19 3 0
BITMAP
08
10
20
00
88
88
88
00
E0
20
20
20
20
20
28
28
28
28
38
ENDCHAR
STARTCHAR Alpha
ENCODING 913
SWIDTH 500 0
DWIDTH 12 0
BBX 9 15 1 0
BITMAP
0780
0880
1080
2080
4080
8080
8080
8080
FF80
8080
8080
8080
8080
8080
8080
ENDCHAR
STARTCHAR Beta
ENCODING 914
SWIDTH 500 0
DWIDTH 12 0
BBX 9 15 1 0
BITMAP
FF80
8080
8080
8080
8080
8080
FF00
8080
8080
8080
8080
8080
8080
8080
FF80
ENDCHAR
STARTCHAR Gamma
ENCODING 915
SWIDTH 500 0
DWIDTH 12 0
BBX 9 15 1 0
BITMAP
FF80
8080
8000
8000
8000
8000
8000
8000
8000
8000
8000
8000
8000
8000
8000
ENDCHAR
STARTCHAR Delta
ENCODING 916
SWIDTH 500 0
DWIDTH 12 0
BBX 9 15 1 0
BITMAP
0780
0880
1080
2080
4080
8080
8080
8080
8080
8080
8080
8080
8080
8080
FF80
ENDCHAR
STARTCHAR Epsilon
ENCODING 917
SWIDTH 500 0
DWIDTH 12 0
BBX 9 15 1 0
BITMAP
FF80
8000
8000
8000
8000
8000
8000
FF00
8000
8000
8000
8000
8000
8000
FF80
ENDCHAR
STARTCHAR Zeta
ENCODING 918
SWIDTH 500 0
DWIDTH 12 0
BBX 9 15 1 0
BITMAP
FF80
0080
0080
0080
0100
0200
0400
0800
1000
2000
4000
8000
8000
8000
FF80
ENDCHAR
STARTCHAR Eta
ENCODING 919
SWIDTH 500 0
DWIDTH 12 0
BBX 9 15 1 0
BITMAP
8080
8080
8080
8080
8080
8080
8080
FF80
8080
8080
8080
8080
8080
8080
8080
ENDCHAR
STARTCHAR Theta
ENCODING 920
SWIDTH 500 0
DWIDTH 12 0
BBX 9 15 1 0
BITMAP
FF80
8080
8080
8080
8080
8080
8080
BE80
8080
8080
8080
8080
8080
8080
FF80
ENDCHAR
STARTCHAR Iota
ENCODING 921
SWIDTH 500 0
DWIDTH 12 0
BBX 5 15 3 0
BITMAP
F8
20
20
20
20
20
20
20
20
20
28
28
28
28
F8
ENDCHAR
STARTCHAR Kappa
ENCODING 922
SWIDTH 500 0
DWIDTH 12 0
BBX 9 15 1 0
BITMAP
8180
8200
8400
8800
9000
A000
C000
FF80
8080
8080
8080
8080
8080
8080
8080
ENDCHAR
STARTCHAR Lambda
ENCODING 923
SWIDTH 500 0
DWIDTH 12 0
BBX 9 15 1 0
BITMAP
0800
0800
0800
1400
1400
1400
2200
2200
2200
4100
4100
4100
8080
8080
8080
ENDCHAR
STARTCHAR Mu
ENCODING 924
SWIDTH 500 0
DWIDTH 12 0
BBX 10 15 1 0
BITMAP
FFC0
8440
8440
8440
8440
8440
8440
8440
8440
8440
8040
8040
8040
8040
8040
ENDCHAR
STARTCHAR Nu
ENCODING 925
SWIDTH 500 0
DWIDTH 12 0
BBX 9 15 1 0
BITMAP
9F80
A080
C080
8080
8080
8080
8080
8080
8080
8080
8080
8080
8080
8080
8080
ENDCHAR
STARTCHAR Xi
ENCODING 926
SWIDTH 500 0
DWIDTH 12 0
BBX 9 15 1 0
BITMAP
FF80
0000
0000
0000
0000
0000
0000
3E00
0000
0000
0000
0000
0000
0000
FF80
ENDCHAR
STARTCHAR Omicron
ENCODING 927
SWIDTH 500 0
DWIDTH 12 0
BBX 9 15 1 0
BITMAP
FF80
8080
8080
8080
8080
8080
8080
8080
8080
8080
8080
8080
8080
8080
FF80
ENDCHAR
STARTCHAR Pi
ENCODING 928
SWIDTH 500 0
DWIDTH 12 0
BBX 9 15 1 0
BITMAP
FF80
8080
8080
8080
8080
8080
8080
8080
8080
8080
8080
8080
8080
8080
8080
ENDCHAR
STARTCHAR Rho
ENCODING 929
SWIDTH 500 0
DWIDTH 12 0
BBX 9 15 1 0
BITMAP
FF80
8080
8080
8080
8080
8080
8080
FF80
8000
8000
8000
8000
8000
8000
8000
ENDCHAR
STARTCHAR Sigma
ENCODING 931
SWIDTH 500 0
DWIDTH 12 0
BBX 9 15 1 0
BITMAP
FF80
8000
4000
2000
1000
0800
0400
0200
0400
0800
1000
2000
4000
8000
FF80
ENDCHAR
STARTCHAR Tau
ENCODING 932
SWIDTH 500 0
DWIDTH 12 0
BBX 9 15 1 0
BITMAP
FF80
0800
0800
0800
0800
0800
0800
0800
0800
0800
0800
0800
0800
0800
0800
ENDCHAR
STARTCHAR Upsilon
ENCODING 933
SWIDTH 500 0
DWIDTH 12 0
BBX 9 15 1 0
BITMAP
8080
8080
4100
4100
2200
2200
1400
1400
0800
0800
0800
0800
0800
0800
0800
ENDCHAR
STARTCHAR Phi
ENCODING 934
SWIDTH 500 0
DWIDTH 12 0
BBX 9 15 1 0
BITMAP
0800
FF80
8880
8880
8880
8880
8880
8880
8880
8880
8880
8880
8880
FF80
0800
ENDCHAR
STARTCHAR Chi
ENCODING 935
SWIDTH 500 0
DWIDTH 12 0
BBX 9 15 1 0
BITMAP
8080
8080
8080
8080
4100
2200
1400
0800
1400
2200
4100
8080
8080
8080
8080
ENDCHAR
STARTCHAR Psi
ENCODING 936
SWIDTH 500 0
DWIDTH 12 0
BBX 9 15 1 0
BITMAP
8880
8880
8880
8880
8880
8880
8880
8880
8880
8880
8880
FF80
0800
0800
0800
ENDCHAR
STARTCHAR Omega
ENCODING 937
SWIDTH 500 0
DWIDTH 12 0
BBX 9 15 1 0
BITMAP
FF80
8080
8080
8080
8080
8080
8080
8080
8080
8080
8080
E380
2200
2200
E380
ENDCHAR
STARTCHAR Iotadieresis
ENCODING 938
SWIDTH 500 0
DWIDTH 12 0
BBX 5 19 3 0
BITMAP
88
88
88
00
F8
20
20
20
20
20
20
20
20
20
28
28
28
28
F8
ENDCHAR
STARTCHAR Upsilondieresis
ENCODING 939
SWIDTH 500 0
DWIDTH 12 0
BBX 9 19 1 0
BITMAP
2200
2200
2200
0000
8080
8080
4100
4100
2200
2200
1400
1400
0800
0800
0800
0800
0800
0800
0800
ENDCHAR
STARTCHAR alphatonos
ENCODING 940
SWIDTH 500 0
DWIDTH 12 0
BBX 10 15 1 0
BITMAP
0200
0400
0800
0000
FEC0
8100
8100
8100
8100
8100
8100
8100
8100
8100
FEC0
ENDCHAR
STARTCHAR epsilontonos
ENCODING 941
SWIDTH 500 0
DWIDTH 12 0
BBX 9 15 1 0
BITMAP
0200
0400
0800
0000
FF80
8080
8000
8000
8000
7C00
8000
8000
8000
8080
FF80
ENDCHAR
STARTCHAR etatonos
ENCODING 942
SWIDTH 500 0
DWIDTH 12 0
BBX 9 19 1 -4
BITMAP
0200
0400
0800
0000
BF80
C080
8080
8080
8080
8080
8080
8080
8080
8080
8080
0080
0080
0080
0080
ENDCHAR
STARTCHAR iotatonos
ENCODING 943
SWIDTH 500 0
DWIDTH 12 0
BBX 5 15 3 0
BITMAP
08
10
20
00
E0
20
20
20
20
20
28
28
28
28
38
ENDCHAR
STARTCHAR upsilondieresistonos
ENCODING 944
SWIDTH 500 0
DWIDTH 12 0
BBX 9 19 1 0
BITMAP
0200
0400
0800
0000
2200
2200
2200
0000
8080
8080
8080
8080
8080
8080
8080
8080
8080
8080
FF80
ENDCHAR
STARTCHAR alpha
ENCODING 945
SWIDTH 500 0
DWIDTH 12 0
BBX 10 11 1 0
BITMAP
FEC0
8100
8100
8100
8100
8100
8100
8100
8100
8100
FEC0
ENDCHAR
STARTCHAR beta
ENCODING 946
SWIDTH 500 0
DWIDTH 12 0
BBX 9 19 1 -4
BITMAP
FE00
8200
8200
8200
8200
8200
FF80
8080
8080
8080
8080
8080
8080
8080
FF80
8000
8000
8000
8000
ENDCHAR
STARTCHAR gamma
ENCODING 947
SWIDTH 500 0
DWIDTH 12 0
BBX 9 15 1 -4
BITMAP
8080
8080
8080
4100
4100
4100
2200
2200
1400
1400
0800
0800
0800
0800
0800
ENDCHAR
STARTCHAR delta
ENCODING 948
SWIDTH 500 0
DWIDTH 12 0
BBX 9 15 1 0
BITMAP
3F00
1000
0800
0400
FF80
8080
8080
8080
8080
8080
8080
8080
8080
8080
FF80
ENDCHAR
STARTCHAR epsilon
ENCODING 949
SWIDTH 500 0
DWIDTH 12 0
BBX 9 11 1 0
BITMAP
FF80
8080
8000
8000
8000
7C00
8000
8000
8000
8080
FF80
ENDCHAR
STARTCHAR zeta
ENCODING 950
SWIDTH 500 0
DWIDTH 12 0
BBX 9 19 1 -4
BITMAP
FF80
0100
0200
0400
0800
1000
2000
4000
8000
8000
8000
8000
8000
8000
FF80
0080
0080
0080
0380
ENDCHAR
STARTCHAR eta
ENCODING 951
SWIDTH 500 0
DWIDTH 12 0
BBX 9 15 1 -4
BITMAP
BF80
C080
8080
8080
8080
8080
8080
8080
8080
8080
8080
0080
0080
0080
0080
ENDCHAR
STARTCHAR theta
ENCODING 952
SWIDTH 500 0
DWIDTH 12 0
BBX 8 15 2 0
BITMAP
FF
81
81
81
81
81
81
FF
81
81
81
81
81
81
FF
ENDCHAR
STARTCHAR iota
ENCODING 953
SWIDTH 500 0
DWIDTH 12 0
BBX 5 11 3 0
BITMAP
E0
20
20
20
20
20
28
28
28
28
38
ENDCHAR
STARTCHAR kappa
ENCODING 954
SWIDTH 500 0
DWIDTH 12 0
BBX 8 15 2 0
BITMAP
80
80
80
80
81
82
84
88
90
FF
81
81
81
81
81
ENDCHAR
STARTCHAR lambda
ENCODING 955
SWIDTH 500 0
DWIDTH 12 0
BBX 9 15 1 0
BITMAP
2000
2000
1000
1000
0800
0800
1400
1400
2200
2200
4100
4100
8080
8080
8080
ENDCHAR
STARTCHAR mugreek
ENCODING 956
SWIDTH 500 0
DWIDTH 12 0
BBX 9 15 1 -4
BITMAP
8080
8080
8080
8080
8080
8080
8080
8080
8180
8280
FC80
8000
8000
8000
8000
ENDCHAR
STARTCHAR nu
ENCODING 957
SWIDTH 500 0
DWIDTH 12 0
BBX 7 11 3 0
BITMAP
82
82
82
82
82
82
82
84
88
90
E0
ENDCHAR
STARTCHAR xi
ENCODING 958
SWIDTH 500 0
DWIDTH 12 0
BBX 9 19 1 -4
BITMAP
FF80
8000
8000
8000
8000
8000
7F00
8000
8000
8000
8000
8000
8000
8000
FF80
0080
0080
0080
0380
ENDCHAR
STARTCHAR omicron
ENCODING 959
SWIDTH 500 0
DWIDTH 12 0
BBX 9 11 1 0
BITMAP
FF80
8080
8080
8080
8080
8080
8080
8080
8080
8080
FF80
ENDCHAR
STARTCHAR pi
ENCODING 960
SWIDTH 500 0
DWIDTH 12 0
BBX 9 11 1 0
BITMAP
FF80
8080
8080
8080
8080
8080
8080
8080
8080
8080
8080
ENDCHAR
STARTCHAR rho
ENCODING 961
SWIDTH 500 0
DWIDTH 12 0
BBX 10 15 0 -4
BITMAP
7FC0
4040
4040
4040
4040
4040
4040
4040
4040
4040
7FC0
4000
4000
4000
C000
ENDCHAR
STARTCHAR sigma1
ENCODING 962
SWIDTH 500 0
DWIDTH 12 0
BBX 9 15 1 -4
BITMAP
FF80
8000
8000
8000
8000
8000
8000
8000
8000
8000
FF80
0080
0080
0080
0380
ENDCHAR
STARTCHAR sigma
ENCODING 963
SWIDTH 500 0
DWIDTH 12 0
BBX 10 11 1 0
BITMAP
FFC0
8200
8100
8080
8080
8080
8080
8080
8080
8080
FF80
ENDCHAR
STARTCHAR tau
ENCODING 964
SWIDTH 500 0
DWIDTH 12 0
BBX 9 11 1 0
BITMAP
FF80
0800
0800
0800
0800
0800
0800
0800
0800
0800
0F00
ENDCHAR
STARTCHAR upsilon
ENCODING 965
SWIDTH 500 0
DWIDTH 12 0
BBX 9 11 1 0
BITMAP
8080
8080
8080
8080
8080
8080
8080
8080
8080
8080
FF80
ENDCHAR
STARTCHAR phi
ENCODING 966
SWIDTH 500 0
DWIDTH 12 0
BBX 9 15 1 -4
BITMAP
8F80
8880
8880
8880
8880
8880
8880
8880
8880
8880
FF80
0800
0800
0800
0800
ENDCHAR
STARTCHAR chi
ENCODING 967
SWIDTH 500 0
DWIDTH 12 0
BBX 9 15 1 -4
BITMAP
8080
8080
8080
8080
4100
2200
1400
0800
1400
2200
4100
8080
8080
8080
8080
ENDCHAR
STARTCHAR psi
ENCODING 968
SWIDTH 500 0
DWIDTH 12 0
BBX 9 15 1 -4
BITMAP
8880
8880
8880
8880
8880
8880
8880
8880
8880
8880
FF80
0800
0800
0800
0800
ENDCHAR
STARTCHAR omega
ENCODING 969
SWIDTH 500 0
DWIDTH 12 0
BBX 9 11 1 0
BITMAP
C180
8080
8080
8080
8880
8880
8880
8880
8880
8880
F780
ENDCHAR
STARTCHAR iotadieresis
ENCODING 970
SWIDTH 500 0
DWIDTH 12 0
BBX 5 15 3 0
BITMAP
88
88
88
00
E0
20
20
20
20
20
28
28
28
28
38
ENDCHAR
STARTCHAR upsilondieresis
ENCODING 971
SWIDTH 500 0
DWIDTH 12 0
BBX 9 15 1 0
BITMAP
2200
2200
2200
0000
8080
8080
8080
8080
8080
8080
8080
8080
8080
8080
FF80
ENDCHAR
STARTCHAR omicrontonos
ENCODING 972
SWIDTH 500 0
DWIDTH 12 0
BBX 9 15 1 0
BITMAP
0200
0400
0800
0000
FF80
8080
8080
8080
8080
8080
8080
8080
8080
8080
FF80
ENDCHAR
STARTCHAR upsilontonos
ENCODING 973
SWIDTH 500 0
DWIDTH 12 0
BBX 9 15 1 0
BITMAP
0200
0400
0800
0000
8080
8080
8080
8080
8080
8080
8080
8080
8080
8080
FF80
ENDCHAR
STARTCHAR omegatonos
ENCODING 974
SWIDTH 500 0
DWIDTH 12 0
BBX 9 15 1 0
BITMAP
0200
0400
0800
0000
C180
8080
8080
8080
8880
8880
8880
8880
8880
8880
F780
ENDCHAR
STARTCHAR uni0400
ENCODING 1024
SWIDTH 500 0
DWIDTH 12 0
BBX 9 19 1 0
BITMAP
2000
1000
0800
0000
FF80
8000
8000
8000
8000
8000
8000
FF00
8000
8000
8000
8000
8000
8000
FF80
ENDCHAR
STARTCHAR afii10023
ENCODING 1025
SWIDTH 500 0
DWIDTH 12 0
BBX 9 19 1 0
BITMAP
2200
2200
2200
0000
FF80
8000
8000
8000
8000
8000
8000
FF00
8000
8000
8000
8000
8000
8000
FF80
ENDCHAR
STARTCHAR afii10051
ENCODING 1026
SWIDTH 500 0
DWIDTH 12 0
BBX 10 18 0 -3
BITMAP
F800
2000
2000
2000
2000
3FC0
2040
2040
2040
2040
2040
2040
2040
2040
2040
0040
0080
0100
ENDCHAR
STARTCHAR afii10052
ENCODING 1027
SWIDTH 500 0
DWIDTH 12 0
BBX 9 19 1 0
BITMAP
0200
0400
0800
0000
FF80
8080
8000
8000
8000
8000
8000
8000
8000
8000
8000
8000
8000
8000
8000
ENDCHAR
STARTCHAR afii10053
ENCODING 1028
SWIDTH 500 0
DWIDTH 12 0
BBX 9 15 1 0
BITMAP
FF80
8080
8080
8000
8000
8000
8000
FC00
8000
8000
8000
8000
8080
8080
FF80
ENDCHAR
STARTCHAR afii10054
ENCODING 1029
SWIDTH 500 0
DWIDTH 12 0
BBX 9 15 1 0
BITMAP
FF80
8080
8000
8000
8000
8000
8000
FF80
0080
0080
0080
0080
0080
8080
FF80
ENDCHAR
STARTCHAR afii10055
ENCODING 1030
SWIDTH 500 0
DWIDTH 12 0
BBX 5 15 3 0
BITMAP
F8
20
20
20
20
20
20
20
20
20
28
28
28
28
F8
ENDCHAR
STARTCHAR afii10056
ENCODING 1031
SWIDTH 500 0
DWIDTH 12 0
BBX 5 19 3 0
BITMAP
88
88
88
00
F8
20
20
20
20
20
20
20
20
20
28
28
28
28
F8
ENDCHAR
STARTCHAR afii10057
ENCODING 1032
SWIDTH 500 0
DWIDTH 12 0
BBX 10 15 1 0
BITMAP
07C0
0100
0100
0100
0100
0100
0100
0100
0100
0100
0100
0100
0100
8100
FF00
ENDCHAR
STARTCHAR afii10058
ENCODING 1033
SWIDTH 500 0
DWIDTH 12 0
BBX 11 15 0 0
BITMAP
0C00
1400
2400
4400
8400
8400
87E0
8420
8420
8420
8420
8420
8420
8420
87E0
ENDCHAR
STARTCHAR afii10059
ENCODING 1034
SWIDTH 500 0
DWIDTH 12 0
BBX 11 15 0 0
BITMAP
8400
8400
8400
8400
8400
8400
87E0
FC20
8420
8420
8420
8420
8420
8420
87E0
ENDCHAR
STARTCHAR afii10060
ENCODING 1035
SWIDTH 500 0
DWIDTH 12 0
BBX 10 15 0 0
BITMAP
F800
2000
2000
2000
2000
3FC0
2040
2040
2040
2040
2040
2040
2040
2040
2040
ENDCHAR
STARTCHAR afii10061
ENCODING 1036
SWIDTH 500 0
DWIDTH 12 0
BBX 9 19 1 0
BITMAP
0200
0400
0800
0000
8180
8200
8400
8800
9000
A000
C000
FF80
8080
8080
8080
8080
8080
8080
8080
ENDCHAR
STARTCHAR uni040D
ENCODING 1037
SWIDTH 500 0
DWIDTH 12 0
BBX 9 19 1 0
BITMAP
2000
1000
0800
0000
8080
8080
8080
8080
8080
8080
8080
8080
8080
8080
8080
8080
8180
8280
FC80
ENDCHAR
STARTCHAR afii10062
ENCODING 1038
SWIDTH 500 0
DWIDTH 12 0
BBX 9 19 1 0
BITMAP
4100
4100
7F00
0000
8080
8080
8080
8080
8080
8080
8080
8080
FF80
0080
0080
0080
0080
0080
7F80
ENDCHAR
STARTCHAR afii10145
ENCODING 1039
SWIDTH 500 0
DWIDTH 12 0
BBX 9 18 1 -3
BITMAP
8080
8080
8080
8080
8080
8080
8080
8080
8080
8080
8080
8080
8080
8080
FF80
0800
0800
0800
ENDCHAR
STARTCHAR afii10017
ENCODING 1040
SWIDTH 500 0
DWIDTH 12 0
BBX 9 15 1 0
BITMAP
0780
0880
1080
2080
4080
8080
8080
8080
FF80
8080
8080
8080
8080
8080
8080
ENDCHAR
STARTCHAR afii10018
ENCODING 1041
SWIDTH 500 0
DWIDTH 12 0
BBX 9 15 1 0
BITMAP
FF00
8000
8000
8000
8000
8000
FF80
8080
8080
8080
8080
8080
8080
8080
FF80
ENDCHAR
STARTCHAR afii10019
ENCODING 1042
SWIDTH 500 0
DWIDTH 12 0
BBX 9 15 1 0
BITMAP
FF80
8080
8080
8080
8080
8080
FF00
8080
8080
8080
8080
8080
8080
8080
FF80
ENDCHAR
STARTCHAR afii10020
ENCODING 1043
SWIDTH 500 0
DWIDTH 12 0
BBX 9 15 1 0
BITMAP
FF80
8080
8000
8000
8000
8000
8000
8000
8000
8000
8000
8000
8000
8000
8000
ENDCHAR
STARTCHAR D
ENCODING 1044
SWIDTH 500 0
DWIDTH 12 0
BBX 9 15 1 0
BITMAP
F800
8400
8200
8100
8080
8080
8080
8080
8080
8080
8080
8080
8080
8080
FF00
ENDCHAR
STARTCHAR afii10022
ENCODING 1045
SWIDTH 500 0
DWIDTH 12 0
BBX 9 15 1 0
BITMAP
FF80
8000
8000
8000
8000
8000
8000
FF00
8000
8000
8000
8000
8000
8000
FF80
ENDCHAR
STARTCHAR afii10024
ENCODING 1046
SWIDTH 500 0
DWIDTH 12 0
BBX 9 15 1 0
BITMAP
8880
8880
8880
8880
8880
8880
8880
FF80
8880
8880
8880
8880
8880
8880
8880
ENDCHAR
STARTCHAR afii10025
ENCODING 1047
SWIDTH 500 0
DWIDTH 12 0
BBX 9 15 1 0
BITMAP
FF80
8080
0080
0080
0080
0080
0100
1F00
0080
0080
0080
0080
0080
8080
FF80
ENDCHAR
STARTCHAR afii10026
ENCODING 1048
SWIDTH 500 0
DWIDTH 12 0
BBX 9 15 1 0
BITMAP
8080
8080
8080
8080
8080
8080
8080
8080
8080
8080
8080
8080
8180
8280
FC80
ENDCHAR
STARTCHAR afii10027
ENCODING 1049
SWIDTH 500 0
DWIDTH 12 0
BBX 9 19 1 0
BITMAP
4100
4100
7F00
0000
8080
8080
8080
8080
8080
8080
8080
8080
8080
8080
8080
8080
8180
8280
FC80
ENDCHAR
STARTCHAR afii10028
ENCODING 1050
SWIDTH 500 0
DWIDTH 12 0
BBX 9 15 1 0
BITMAP
8180
8200
8400
8800
9000
A000
C000
FF80
8080
8080
8080
8080
8080
8080
8080
ENDCHAR
STARTCHAR afii10029
ENCODING 1051
SWIDTH 500 0
DWIDTH 12 0
BBX 8 15 2 0
BITMAP
0F
11
21
41
81
81
81
81
81
81
81
81
81
81
81
ENDCHAR
STARTCHAR afii10030
ENCODING 1052
SWIDTH 500 0
DWIDTH 12 0
BBX 10 15 1 0
BITMAP
FFC0
8440
8440
8440
8440
8440
8440
8440
8440
8440
8040
8040
8040
8040
8040
ENDCHAR
STARTCHAR afii10031
ENCODING 1053
SWIDTH 500 0
DWIDTH 12 0
BBX 9 15 1 0
BITMAP
8080
8080
8080
8080
8080
8080
8080
FF80
8080
8080
8080
8080
8080
8080
8080
ENDCHAR
STARTCHAR afii10032
ENCODING 1054
SWIDTH 500 0
DWIDTH 12 0
BBX 9 15 1 0
BITMAP
FF80
8080
8080
8080
8080
8080
8080
8080
8080
8080
8080
8080
8080
8080
FF80
ENDCHAR
STARTCHAR afii10033
ENCODING 1055
SWIDTH 500 0
DWIDTH 12 0
BBX 9 15 1 0
BITMAP
FF80
8080
8080
8080
8080
8080
8080
8080
8080
8080
8080
8080
8080
8080
8080
ENDCHAR
STARTCHAR afii10034
ENCODING 1056
SWIDTH 500 0
DWIDTH 12 0
BBX 9 15 1 0
BITMAP
FF80
8080
8080
8080
8080
8080
8080
FF80
8000
8000
8000
8000
8000
8000
8000
ENDCHAR
STARTCHAR afii10035
ENCODING 1057
SWIDTH 500 0
DWIDTH 12 0
BBX 9 15 1 0
BITMAP
FF80
8080
8000
8000
8000
8000
8000
8000
8000
8000
8000
8000
8000
8080
FF80
ENDCHAR
STARTCHAR afii10036
ENCODING 1058
SWIDTH 500 0
DWIDTH 12 0
BBX 9 15 1 0
BITMAP
FF80
0800
0800
0800
0800
0800
0800
0800
0800
0800
0800
0800
0800
0800
0800
ENDCHAR
STARTCHAR afii10037
ENCODING 1059
SWIDTH 500 0
DWIDTH 12 0
BBX 9 15 1 0
BITMAP
8080
8080
8080
8080
8080
8080
8080
8080
FF80
0080
0080
0080
0080
0080
7F80
ENDCHAR
STARTCHAR afii10038
ENCODING 1060
SWIDTH 500 0
DWIDTH 12 0
BBX 9 17 1 -1
BITMAP
0800
FF80
8880
8880
8880
8880
8880
8880
8880
8880
8880
8880
8880
8880
8880
FF80
0800
ENDCHAR
STARTCHAR afii10039
ENCODING 1061
SWIDTH 500 0
DWIDTH 12 0
BBX 9 15 1 0
BITMAP
8080
8080
8080
8080
4100
2200
1400
0800
1400
2200
4100
8080
8080
8080
8080
ENDCHAR
STARTCHAR afii10040
ENCODING 1062
SWIDTH 500 0
DWIDTH 12 0
BBX 10 18 1 -3
BITMAP
8080
8080
8080
8080
8080
8080
8080
8080
8080
8080
8080
8080
8080
8080
FFC0
0040
0040
07C0
ENDCHAR
STARTCHAR afii10041
ENCODING 1063
SWIDTH 500 0
DWIDTH 12 0
BBX 9 15 1 0
BITMAP
8080
8080
8080
8080
8080
8080
8080
FF80
0080
0080
0080
0080
0080
0080
0080
ENDCHAR
STARTCHAR afii10042
ENCODING 1064
SWIDTH 500 0
DWIDTH 12 0
BBX 9 15 1 0
BITMAP
8080
8080
8080
8080
8080
8880
8880
8880
8880
8880
8880
8880
8880
8880
FF80
ENDCHAR
STARTCHAR afii10043
ENCODING 1065
SWIDTH 500 0
DWIDTH 12 0
BBX 10 18 1 -3
BITMAP
8080
8080
8080
8080
8080
8880
8880
8880
8880
8880
8880
8880
8880
8880
FFC0
0040
0040
07C0
ENDCHAR
STARTCHAR afii10044
ENCODING 1066
SWIDTH 500 0
DWIDTH 12 0
BBX 10 15 0 0
BITMAP
C000
C000
4000
4000
4000
7FC0
4040
4040
4040
4040
4040
4040
4040
4040
7FC0
ENDCHAR
STARTCHAR afii10045
ENCODING 1067
SWIDTH 500 0
DWIDTH 12 0
BBX 10 15 1 0
BITMAP
8040
8040
8040
8040
8040
FE40
8240
8240
8240
8240
8240
8240
8240
8240
FE40
ENDCHAR
STARTCHAR afii10046
ENCODING 1068
SWIDTH 500 0
DWIDTH 12 0
BBX 9 15 1 0
BITMAP
8000
8000
8000
8000
8000
FF80
8080
8080
8080
8080
8080
8080
8080
8080
FF80
ENDCHAR
STARTCHAR afii10047
ENCODING 1069
SWIDTH 500 0
DWIDTH 12 0
BBX 9 15 1 0
BITMAP
FF80
8080
0080
0080
0080
0080
0080
1F80
0080
0080
0080
0080
0080
8080
FF80
ENDCHAR
STARTCHAR afii10048
ENCODING 1070
SWIDTH 500 0
DWIDTH 12 0
BBX 10 15 1 0
BITMAP
8FC0
8840
8840
8840
8840
8840
8840
F840
8840
8840
8840
8840
8840
8840
8FC0
ENDCHAR
STARTCHAR afii10049
ENCODING 1071
SWIDTH 500 0
DWIDTH 12 0
BBX 9 15 1 0
BITMAP
FF80
8080
8080
8080
8080
8080
8080
FF80
1080
2080
2080
4080
4080
8080
8080
ENDCHAR
STARTCHAR afii10065
ENCODING 1072
SWIDTH 500 0
DWIDTH 12 0
BBX 9 11 1 0
BITMAP
7F80
0080
0080
0080
FF80
8080
8080
8080
8080
8080
FF80
ENDCHAR
STARTCHAR afii10066
ENCODING 1073
SWIDTH 500 0
DWIDTH 12 0
BBX 9 12 1 0
BITMAP
FF00
8000
8000
8000
FF80
8080
8080
8080
8080
8080
8080
FF80
ENDCHAR
STARTCHAR afii10067
ENCODING 1074
SWIDTH 500 0
DWIDTH 12 0
BBX 9 15 1 0
BITMAP
FC00
8400
8400
8400
8400
8400
FF80
8080
8080
8080
8080
8080
8080
8080
FF80
ENDCHAR
STARTCHAR afii10068
ENCODING 1075
SWIDTH 500 0
DWIDTH 12 0
BBX 9 11 1 0
BITMAP
FF80
8080
8000
8000
8000
8000
8000
8000
8000
8000
8000
ENDCHAR
STARTCHAR afii10069
ENCODING 1076
SWIDTH 500 0
DWIDTH 12 0
BBX 9 15 1 -4
BITMAP
FF80
8080
8080
8080
8080
8080
8080
8080
8080
8080
FF80
0080
0080
0080
7F80
ENDCHAR
STARTCHAR afii10070
ENCODING 1077
SWIDTH 500 0
DWIDTH 12 0
BBX 9 11 1 0
BITMAP
FF80
8080
8080
8080
8080
FF80
8000
8000
8000
8000
FF00
ENDCHAR
STARTCHAR afii10072
ENCODING 1078
SWIDTH 500 0
DWIDTH 12 0
BBX 9 11 1 0
BITMAP
8880
8880
8880
8880
8880
FF80
8880
8880
8880
8880
8880
ENDCHAR
STARTCHAR afii10073
ENCODING 1079
SWIDTH 500 0
DWIDTH 12 0
BBX 9 11 1 0
BITMAP
FF80
0080
0080
0080
0100
1F00
0080
0080
0080
0080
FF80
ENDCHAR
STARTCHAR afii10074
ENCODING 1080
SWIDTH 500 0
DWIDTH 12 0
BBX 9 11 1 0
BITMAP
8080
8080
8080
8080
8080
8080
8080
8080
8080
8180
FE80
ENDCHAR
STARTCHAR afii10075
ENCODING 1081
SWIDTH 500 0
DWIDTH 12 0
BBX 9 15 1 0
BITMAP
4100
4100
7F00
0000
8080
8080
8080
8080
8080
8080
8080
8080
8080
8180
FE80
ENDCHAR
STARTCHAR afii10076
ENCODING 1082
SWIDTH 500 0
DWIDTH 12 0
BBX 8 15 2 0
BITMAP
80
80
80
80
81
82
84
88
90
FF
81
81
81
81
81
ENDCHAR
STARTCHAR afii10077
ENCODING 1083
SWIDTH 500 0
DWIDTH 12 0
BBX 8 11 2 0
BITMAP
0F
11
21
41
81
81
81
81
81
81
81
ENDCHAR
STARTCHAR afii10078
ENCODING 1084
SWIDTH 500 0
DWIDTH 12 0
BBX 9 11 1 0
BITMAP
FF80
8880
8880
8880
8880
8880
8880
8080
8080
8080
8080
ENDCHAR
STARTCHAR afii10079
ENCODING 1085
SWIDTH 500 0
DWIDTH 12 0
BBX 9 11 1 0
BITMAP
8080
8080
8080
8080
8080
FF80
8080
8080
8080
8080
8080
ENDCHAR
STARTCHAR afii10080
ENCODING 1086
SWIDTH 500 0
DWIDTH 12 0
BBX 9 11 1 0
BITMAP
FF80
8080
8080
8080
8080
8080
8080
8080
8080
8080
FF80
ENDCHAR
STARTCHAR afii10081
ENCODING 1087
SWIDTH 500 0
DWIDTH 12 0
BBX 9 11 1 0
BITMAP
FF80
8080
8080
8080
8080
8080
8080
8080
8080
8080
8080
ENDCHAR
STARTCHAR afii10082
ENCODING 1088
SWIDTH 500 0
DWIDTH 12 0
BBX 9 15 1 -4
BITMAP
FF80
8080
8080
8080
8080
8080
8080
8080
8080
8080
FF80
8000
8000
8000
8000
ENDCHAR
STARTCHAR afii10083
ENCODING 1089
SWIDTH 500 0
DWIDTH 12 0
BBX 9 11 1 0
BITMAP
FF80
8000
8000
8000
8000
8000
8000
8000
8000
8000
FF80
ENDCHAR
STARTCHAR afii10084
ENCODING 1090
SWIDTH 500 0
DWIDTH 12 0
BBX 9 11 1 0
BITMAP
FF80
0800
0800
0800
0800
0800
0800
0800
0800
0800
0800
ENDCHAR
STARTCHAR afii10085
ENCODING 1091
SWIDTH 500 0
DWIDTH 12 0
BBX 9 15 1 -4
BITMAP
8080
8080
8080
8080
8080
8080
8080
8080
8080
8080
FF80
0080
0080
0080
7F80
ENDCHAR
STARTCHAR afii10086
ENCODING 1092
SWIDTH 500 0
DWIDTH 12 0
BBX 9 15 1 -2
BITMAP
0800
0800
FF80
8880
8880
8880
8880
8880
8880
8880
8880
8880
FF80
0800
0800
ENDCHAR
STARTCHAR afii10087
ENCODING 1093
SWIDTH 500 0
DWIDTH 12 0
BBX 9 11 1 0
BITMAP
8080
8080
4100
2200
1400
0800
1400
2200
4100
8080
8080
ENDCHAR
STARTCHAR afii10088
ENCODING 1094
SWIDTH 500 0
DWIDTH 12 0
BBX 10 14 1 -3
BITMAP
8080
8080
8080
8080
8080
8080
8080
8080
8080
8080
FFC0
0040
0040
07C0
ENDCHAR
STARTCHAR afii10089
ENCODING 1095
SWIDTH 500 0
DWIDTH 12 0
BBX 9 11 1 0
BITMAP
8080
8080
8080
8080
8080
FF80
0080
0080
0080
0080
0080
ENDCHAR
STARTCHAR afii10090
ENCODING 1096
SWIDTH 500 0
DWIDTH 12 0
BBX 9 11 1 0
BITMAP
8080
8080
8080
8080
8880
8880
8880
8880
8880
8880
FF80
ENDCHAR
STARTCHAR afii10091
ENCODING 1097
SWIDTH 500 0
DWIDTH 12 0
BBX 10 14 1 -3
BITMAP
8080
8080
8080
8080
8880
8880
8880
8880
8880
8880
FFC0
0040
0040
0040
ENDCHAR
STARTCHAR afii10092
ENCODING 1098
SWIDTH 500 0
DWIDTH 12 0
BBX 9 11 1 0
BITMAP
C000
C000
4000
7F80
4080
4080
4080
4080
4080
4080
7F80
ENDCHAR
STARTCHAR afii10093
ENCODING 1099
SWIDTH 500 0
DWIDTH 12 0
BBX 9 11 1 0
BITMAP
8080
8080
8080
FC80
8480
8480
8480
8480
8480
8480
FC80
ENDCHAR
STARTCHAR afii10094
ENCODING 1100
SWIDTH 500 0
DWIDTH 12 0
BBX 8 11 2 0
BITMAP
80
80
80
FF
81
81
81
81
81
81
FF
ENDCHAR
STARTCHAR afii10095
ENCODING 1101
SWIDTH 500 0
DWIDTH 12 0
BBX 9 11 1 0
BITMAP
FF80
8080
0080
0080
0080
1F80
0080
0080
0080
8080
FF80
ENDCHAR
STARTCHAR afii10096
ENCODING 1102
SWIDTH 500 0
DWIDTH 12 0
BBX 10 11 1 0
BITMAP
8FC0
8840
8840
8840
8840
F840
8840
8840
8840
8840
8FC0
ENDCHAR
STARTCHAR afii10097
ENCODING 1103
SWIDTH 500 0
DWIDTH 12 0
BBX 9 11 1 0
BITMAP
FF80
8080
8080
8080
8080
FF80
1080
2080
2080
4080
4080
ENDCHAR
STARTCHAR uni0450
ENCODING 1104
SWIDTH 500 0
DWIDTH 12 0
BBX 9 15 1 0
BITMAP
2000
1000
0800
0000
FF80
8080
8080
8080
8080
FF80
8000
8000
8000
8000
FF00
ENDCHAR
STARTCHAR afii10071
ENCODING 1105
SWIDTH 500 0
DWIDTH 12 0
BBX 9 15 1 0
BITMAP
2200
2200
2200
0000
FF80
8080
8080
8080
8080
FF80
8000
8000
8000
8000
FF00
ENDCHAR
STARTCHAR afii10099
ENCODING 1106
SWIDTH 500 0
DWIDTH 12 0
BBX 10 18 0 -3
BITMAP
4000
FC00
4000
4000
7FC0
4040
4040
4040
4040
4040
4040
4040
4040
4040
4040
0040
0080
0100
ENDCHAR
STARTCHAR afii10100
ENCODING 1107
SWIDTH 500 0
DWIDTH 12 0
BBX 9 15 1 0
BITMAP
0200
0400
0800
0000
FF80
8080
8000
8000
8000
8000
8000
8000
8000
8000
8000
ENDCHAR
STARTCHAR afii10101
ENCODING 1108
SWIDTH 500 0
DWIDTH 12 0
BBX 9 11 1 0
BITMAP
FF80
8080
8000
8000
8000
FC00
8000
8000
8000
8080
FF80
ENDCHAR
STARTCHAR afii10102
ENCODING 1109
SWIDTH 500 0
DWIDTH 12 0
BBX 9 11 1 0
BITMAP
FF80
8000
8000
8000
6000
1C00
0300
0080
0080
0080
FF80
ENDCHAR
STARTCHAR afii10103
ENCODING 1110
SWIDTH 500 0
DWIDTH 12 0
BBX 5 15 3 0
BITMAP
20
20
20
00
E0
20
20
20
20
20
28
28
28
28
F8
ENDCHAR
STARTCHAR afii10104
ENCODING 1111
SWIDTH 500 0
DWIDTH 12 0
BBX 5 15 3 0
BITMAP
88
88
88
00
E0
20
20
20
20
20
28
28
28
28
F8
ENDCHAR
STARTCHAR afii10105
ENCODING 1112
SWIDTH 500 0
DWIDTH 12 0
BBX 7 19 2 -4
BITMAP
02
02
02
00
0E
02
02
02
02
02
02
02
02
02
02
02
02
82
FE
ENDCHAR
STARTCHAR afii10106
ENCODING 1113
SWIDTH 500 0
DWIDTH 12 0
BBX 11 11 0 0
BITMAP
1C00
2400
4400
87E0
8420
8420
8420
8420
8420
8420
87E0
ENDCHAR
STARTCHAR afii10107
ENCODING 1114
SWIDTH 500 0
DWIDTH 12 0
BBX 11 11 0 0
BITMAP
8400
8400
8400
8400
87E0
FC20
8420
8420
8420
8420
87E0
ENDCHAR
STARTCHAR afii10108
ENCODING 1115
SWIDTH 500 0
DWIDTH 12 0
BBX 10 15 0 0
BITMAP
4000
FC00
4000
4000
7FC0
4040
4040
4040
4040
4040
4040
4040
4040
4040
4040
ENDCHAR
STARTCHAR afii10109
ENCODING 1116
SWIDTH 500 0
DWIDTH 12 0
BBX 8 15 2 0
BITMAP
84
88
90
80
81
82
84
88
90
FF
81
81
81
81
81
ENDCHAR
STARTCHAR uni045D
ENCODING 1117
SWIDTH 500 0
DWIDTH 12 0
BBX 9 15 1 0
BITMAP
2000
1000
0800
0000
8080
8080
8080
8080
8080
8080
8080
8080
8080
8180
FE80
ENDCHAR
STARTCHAR afii10110
ENCODING 1118
SWIDTH 500 0
DWIDTH 12 0
BBX 9 19 1 -4
BITMAP
4100
4100
7F00
0000
8080
8080
8080
8080
8080
8080
8080
8080
8080
8080
FF80
0080
0080
0080
7F80
ENDCHAR
STARTCHAR afii10193
ENCODING 1119
SWIDTH 500 0
DWIDTH 12 0
BBX 9 14 1 -3
BITMAP
8080
8080
8080
8080
8080
8080
8080
8080
8080
8080
FF80
0800
0800
0800
ENDCHAR
STARTCHAR afii10044
ENCODING 1122
SWIDTH 500 0
DWIDTH 12 0
BBX 10 15 0 0
BITMAP
2000
2000
FC00
2000
2000
3FC0
2040
2040
2040
2040
2040
2040
2040
2040
3FC0
ENDCHAR
STARTCHAR afii10092
ENCODING 1123
SWIDTH 500 0
DWIDTH 12 0
BBX 10 12 0 0
BITMAP
2000
2000
FC00
2000
3FC0
2040
2040
2040
2040
2040
2040
3FC0
ENDCHAR
STARTCHAR afii10050
ENCODING 1168
SWIDTH 500 0
DWIDTH 12 0
BBX 9 18 1 0
BITMAP
0080
0080
0080
FF80
8080
8000
8000
8000
8000
8000
8000
8000
8000
8000
8000
8000
8000
8000
ENDCHAR
STARTCHAR afii10098
ENCODING 1169
SWIDTH 500 0
DWIDTH 12 0
BBX 9 14 1 0
BITMAP
0080
0080
0080
FF80
8080
8000
8000
8000
8000
8000
8000
8000
8000
8000
ENDCHAR
STARTCHAR uni0492
ENCODING 1170
SWIDTH 500 0
DWIDTH 12 0
BBX 10 15 0 0
BITMAP
7FC0
4040
4000
4000
4000
4000
4000
FC00
4000
4000
4000
4000
4000
4000
4000
ENDCHAR
STARTCHAR uni0493
ENCODING 1171
SWIDTH 500 0
DWIDTH 12 0
BBX 10 11 0 0
BITMAP
7FC0
4040
4000
4000
4000
FC00
4000
4000
4000
4000
4000
ENDCHAR
STARTCHAR uni0494
ENCODING 1172
SWIDTH 500 0
DWIDTH 12 0
BBX 9 18 1 -3
BITMAP
FF80
8000
8000
8000
8000
8000
8000
FF80
8080
8080
8080
8080
8080
8080
8080
0080
0100
0200
ENDCHAR
STARTCHAR uni0495
ENCODING 1173
SWIDTH 500 0
DWIDTH 12 0
BBX 9 14 1 -3
BITMAP
FF80
8000
8000
8000
8000
FF00
8100
8100
8100
8100
8100
0100
0200
0400
ENDCHAR
STARTCHAR uni0496
ENCODING 1174
SWIDTH 500 0
DWIDTH 12 0
BBX 10 18 1 -3
BITMAP
8880
8880
8880
8880
8880
8880
8880
FF80
8880
8880
8880
8880
8880
8880
88C0
0040
0040
0040
ENDCHAR
STARTCHAR uni0497
ENCODING 1175
SWIDTH 500 0
DWIDTH 12 0
BBX 10 14 1 -3
BITMAP
8880
8880
8880
8880
8880
FF80
8880
8880
8880
8880
88C0
0040
0040
0040
ENDCHAR
STARTCHAR uni0498
ENCODING 1176
SWIDTH 500 0
DWIDTH 12 0
BBX 9 19 1 -4
BITMAP
FF80
8080
0080
0080
0080
0080
0100
1F00
0080
0080
0080
0080
0080
8080
FF80
0800
0800
0800
0800
ENDCHAR
STARTCHAR uni0499
ENCODING 1177
SWIDTH 500 0
DWIDTH 12 0
BBX 9 15 1 -4
BITMAP
FF80
0080
0080
0080
0100
1F00
0080
0080
0080
0080
FF80
0800
0800
0800
0800
ENDCHAR
STARTCHAR uni049A
ENCODING 1178
SWIDTH 500 0
DWIDTH 12 0
BBX 10 18 1 -3
BITMAP
8180
8200
8400
8800
9000
A000
C000
FF80
8080
8080
8080
8080
8080
8080
80C0
0040
0040
0040
ENDCHAR
STARTCHAR uni049B
ENCODING 1179
SWIDTH 500 0
DWIDTH 12 0
BBX 9 18 2 -3
BITMAP
8000
8000
8000
8000
8100
8200
8400
8800
9000
FF00
8100
8100
8100
8100
8180
0080
0080
0080
ENDCHAR
STARTCHAR uni049C
ENCODING 1180
SWIDTH 500 0
DWIDTH 12 0
BBX 9 15 1 0
BITMAP
8080
8080
8100
8200
A400
A800
B000
FF80
A080
A080
A080
8080
8080
8080
8080
ENDCHAR
STARTCHAR uni049D
ENCODING 1181
SWIDTH 500 0
DWIDTH 12 0
BBX 9 15 1 0
BITMAP
8000
8000
8000
8000
8080
8100
A200
A400
A800
FF80
A080
A080
A080
8080
8080
ENDCHAR
STARTCHAR uni04A0
ENCODING 1184
SWIDTH 500 0
DWIDTH 12 0
BBX 10 15 0 0
BITMAP
C0C0
C100
4200
4400
4800
5000
6000
7FC0
4040
4040
4040
4040
4040
4040
4040
ENDCHAR
STARTCHAR uni04A1
ENCODING 1185
SWIDTH 500 0
DWIDTH 12 0
BBX 9 15 1 0
BITMAP
C000
C000
4000
4000
4080
4100
4200
4400
4800
7F80
4080
4080
4080
4080
4080
ENDCHAR
STARTCHAR uni04A2
ENCODING 1186
SWIDTH 500 0
DWIDTH 12 0
BBX 10 18 1 -3
BITMAP
8080
8080
8080
8080
8080
8080
8080
FF80
8080
8080
8080
8080
8080
8080
80C0
0040
0040
0040
ENDCHAR
STARTCHAR uni04A3
ENCODING 1187
SWIDTH 500 0
DWIDTH 12 0
BBX 10 14 1 -3
BITMAP
8080
8080
8080
8080
8080
FF80
8080
8080
8080
8080
80C0
0040
0040
0040
ENDCHAR
STARTCHAR uni04A4
ENCODING 1188
SWIDTH 500 0
DWIDTH 12 0
BBX 10 15 1 0
BITMAP
83C0
8240
8200
8200
8200
8200
8200
FE00
8200
8200
8200
8200
8200
8200
8200
ENDCHAR
STARTCHAR uni04A5
ENCODING 1189
SWIDTH 500 0
DWIDTH 12 0
BBX 10 11 1 0
BITMAP
83C0
8200
8200
8200
8200
FE00
8200
8200
8200
8200
8200
ENDCHAR
STARTCHAR uni04AA
ENCODING 1194
SWIDTH 500 0
DWIDTH 12 0
BBX 9 19 1 -4
BITMAP
FF80
8080
8000
8000
8000
8000
8000
8000
8000
8000
8000
8000
8000
8080
FF80
0800
0800
0800
0800
ENDCHAR
STARTCHAR uni04AB
ENCODING 1195
SWIDTH 500 0
DWIDTH 12 0
BBX 9 15 1 -4
BITMAP
FF80
8000
8000
8000
8000
8000
8000
8000
8000
8000
FF80
0800
0800
0800
0800
ENDCHAR
STARTCHAR uni04AE
ENCODING 1198
SWIDTH 500 0
DWIDTH 12 0
BBX 9 15 1 0
BITMAP
8080
8080
4100
4100
2200
2200
1400
1400
0800
0800
0800
0800
0800
0800
0800
ENDCHAR
STARTCHAR uni04AF
ENCODING 1199
SWIDTH 500 0
DWIDTH 12 0
BBX 9 15 1 -4
BITMAP
8080
8080
8080
4100
4100
4100
2200
2200
1400
1400
0800
0800
0800
0800
0800
ENDCHAR
STARTCHAR uni04B0
ENCODING 1200
SWIDTH 500 0
DWIDTH 12 0
BBX 9 15 1 0
BITMAP
8080
8080
4100
4100
2200
2200
1400
1400
0800
7F00
0800
0800
0800
0800
0800
ENDCHAR
STARTCHAR uni04B1
ENCODING 1201
SWIDTH 500 0
DWIDTH 12 0
BBX 9 15 1 -4
BITMAP
8080
8080
8080
4100
4100
4100
2200
2200
1400
1400
0800
7F00
0800
0800
0800
ENDCHAR
STARTCHAR uni04B2
ENCODING 1202
SWIDTH 500 0
DWIDTH 12 0
BBX 10 18 1 -3
BITMAP
8080
8080
8080
8080
4100
2200
1400
0800
1400
2200
4100
8080
8080
8080
80C0
0040
0040
0040
ENDCHAR
STARTCHAR uni04B3
ENCODING 1203
SWIDTH 500 0
DWIDTH 12 0
BBX 10 14 1 -3
BITMAP
8080
8080
4100
2200
1400
0800
1400
2200
4100
8080
80C0
0040
0040
0040
ENDCHAR
STARTCHAR uni04B6
ENCODING 1206
SWIDTH 500 0
DWIDTH 12 0
BBX 10 18 1 -3
BITMAP
8080
8080
8080
8080
8080
8080
8080
FF80
0080
0080
0080
0080
0080
0080
00C0
0040
0040
0040
ENDCHAR
STARTCHAR uni04B7
ENCODING 1207
SWIDTH 500 0
DWIDTH 12 0
BBX 10 14 1 -3
BITMAP
8080
8080
8080
8080
8080
FF80
0080
0080
0080
0080
00C0
0040
0040
0040
ENDCHAR
STARTCHAR uni04B8
ENCODING 1208
SWIDTH 500 0
DWIDTH 12 0
BBX 9 15 1 0
BITMAP
8080
8080
8080
8080
8880
8880
8880
FF80
0880
0880
0880
0080
0080
0080
0080
ENDCHAR
STARTCHAR uni04B9
ENCODING 1209
SWIDTH 500 0
DWIDTH 12 0
BBX 9 11 1 0
BITMAP
8080
8080
8880
8880
8880
FF80
0880
0880
0880
0080
0080
ENDCHAR
STARTCHAR uni04BA
ENCODING 1210
SWIDTH 500 0
DWIDTH 12 0
BBX 9 15 1 0
BITMAP
8000
8000
8000
8000
8000
8000
FF80
8080
8080
8080
8080
8080
8080
8080
8080
ENDCHAR
STARTCHAR uni04BB
ENCODING 1211
SWIDTH 500 0
DWIDTH 12 0
BBX 9 11 1 0
BITMAP
8000
8000
8000
8000
FF80
8080
8080
8080
8080
8080
8080
ENDCHAR
STARTCHAR uni04D0
ENCODING 1232
SWIDTH 500 0
DWIDTH 12 0
BBX 9 19 1 0
BITMAP
4100
4100
7F00
0000
0780
0880
1080
2080
4080
8080
8080
8080
FF80
8080
8080
8080
8080
8080
8080
ENDCHAR
STARTCHAR uni04D1
ENCODING 1233
SWIDTH 500 0
DWIDTH 12 0
BBX 9 15 1 0
BITMAP
4100
4100
7F00
0000
7F80
0080
0080
0080
FF80
8080
8080
8080
8080
8080
FF80
ENDCHAR
STARTCHAR uni04D2
ENCODING 1234
SWIDTH 500 0
DWIDTH 12 0
BBX 9 19 1 0
BITMAP
2200
2200
2200
0000
0780
0880
1080
2080
4080
8080
8080
8080
FF80
8080
8080
8080
8080
8080
8080
ENDCHAR
STARTCHAR uni04D3
ENCODING 1235
SWIDTH 500 0
DWIDTH 12 0
BBX 9 15 1 0
BITMAP
2200
2200
2200
0000
7F80
0080
0080
0080
FF80
8080
8080
8080
8080
8080
FF80
ENDCHAR
STARTCHAR uni04D4
ENCODING 1236
SWIDTH 500 0
DWIDTH 12 0
BBX 11 15 0 0
BITMAP
1FE0
2400
4400
8400
8400
8400
8400
FFC0
8400
8400
8400
8400
8400
8400
87E0
ENDCHAR
STARTCHAR uni04D5
ENCODING 1237
SWIDTH 500 0
DWIDTH 12 0
BBX 11 11 0 0
BITMAP
7FE0
0420
0420
0420
FC20
87E0
8400
8400
8400
8400
FFC0
ENDCHAR
STARTCHAR uni04D6
ENCODING 1238
SWIDTH 500 0
DWIDTH 12 0
BBX 9 19 1 0
BITMAP
4100
4100
7F00
0000
FF80
8000
8000
8000
8000
8000
8000
FF00
8000
8000
8000
8000
8000
8000
FF80
ENDCHAR
STARTCHAR uni04D7
ENCODING 1239
SWIDTH 500 0
DWIDTH 12 0
BBX 9 15 1 0
BITMAP
4100
4100
7F00
0000
FF80
8080
8080
8080
8080
FF80
8000
8000
8000
8000
FF00
ENDCHAR
STARTCHAR uni04D8
ENCODING 1240
SWIDTH 500 0
DWIDTH 12 0
BBX 9 15 1 0
BITMAP
7F80
0080
0080
0080
0080
0080
0080
FF80
8080
8080
8080
8080
8080
8080
FF80
ENDCHAR
STARTCHAR afii10846
ENCODING 1241
SWIDTH 500 0
DWIDTH 12 0
BBX 9 11 1 0
BITMAP
7F80
0080
0080
0080
0080
FF80
8080
8080
8080
8080
FF80
ENDCHAR
STARTCHAR uni04DA
ENCODING 1242
SWIDTH 500 0
DWIDTH 12 0
BBX 9 19 1 0
BITMAP
2200
2200
2200
0000
7F80
0080
0080
0080
0080
0080
0080
FF80
8080
8080
8080
8080
8080
8080
FF80
ENDCHAR
STARTCHAR uni04DB
ENCODING 1243
SWIDTH 500 0
DWIDTH 12 0
BBX 9 15 1 0
BITMAP
2200
2200
2200
0000
7F80
0080
0080
0080
0080
FF80
8080
8080
8080
8080
FF80
ENDCHAR
STARTCHAR uni04DC
ENCODING 1244
SWIDTH 500 0
DWIDTH 12 0
BBX 9 19 1 0
BITMAP
2200
2200
2200
0000
8880
8880
8880
8880
8880
8880
8880
FF80
8880
8880
8880
8880
8880
8880
8880
ENDCHAR
STARTCHAR uni04DD
ENCODING 1245
SWIDTH 500 0
DWIDTH 12 0
BBX 9 15 1 0
BITMAP
2200
2200
2200
0000
8880
8880
8880
8880
8880
FF80
8880
8880
8880
8880
8880
ENDCHAR
STARTCHAR uni04DE
ENCODING 1246
SWIDTH 500 0
DWIDTH 12 0
BBX 9 19 1 0
BITMAP
2200
2200
2200
0000
FF80
8080
0080
0080
0080
0080
0100
1F00
0080
0080
0080
0080
0080
8080
FF80
ENDCHAR
STARTCHAR uni04DF
ENCODING 1247
SWIDTH 500 0
DWIDTH 12 0
BBX 9 15 1 0
BITMAP
2200
2200
2200
0000
FF80
0080
0080
0080
0100
1F00
0080
0080
0080
0080
FF80
ENDCHAR
STARTCHAR uni04E2
ENCODING 1250
SWIDTH 500 0
DWIDTH 12 0
BBX 9 18 1 0
BITMAP
7F00
0000
0000
8080
8080
8080
8080
8080
8080
8080
8080
8080
8080
8080
8080
8180
8280
FC80
ENDCHAR
STARTCHAR uni04E3
ENCODING 1251
SWIDTH 500 0
DWIDTH 12 0
BBX 9 14 1 0
BITMAP
7F00
0000
0000
8080
8080
8080
8080
8080
8080
8080
8080
8080
8180
FE80
ENDCHAR
STARTCHAR uni04E4
ENCODING 1252
SWIDTH 500 0
DWIDTH 12 0
BBX 9 19 1 0
BITMAP
2200
2200
2200
0000
8080
8080
8080
8080
8080
8080
8080
8080
8080
8080
8080
8080
8180
8280
FC80
ENDCHAR
STARTCHAR uni04E5
ENCODING 1253
SWIDTH 500 0
DWIDTH 12 0
BBX 9 15 1 0
BITMAP
2200
2200
2200
0000
8080
8080
8080
8080
8080
8080
8080
8080
8080
8180
FE80
ENDCHAR
STARTCHAR uni04E6
ENCODING 1254
SWIDTH 500 0
DWIDTH 12 0
BBX 9 19 1 0
BITMAP
2200
2200
2200
0000
FF80
8080
8080
8080
8080
8080
8080
8080
8080
8080
8080
8080
8080
8080
FF80
ENDCHAR
STARTCHAR uni04E7
ENCODING 1255
SWIDTH 500 0
DWIDTH 12 0
BBX 9 15 1 0
BITMAP
2200
2200
2200
0000
FF80
8080
8080
8080
8080
8080
8080
8080
8080
8080
FF80
ENDCHAR
STARTCHAR uni04E8
ENCODING 1256
SWIDTH 500 0
DWIDTH 12 0
BBX 9 15 1 0
BITMAP
FF80
8080
8080
8080
8080
8080
8080
FF80
8080
8080
8080
8080
8080
8080
FF80
ENDCHAR
STARTCHAR uni04E9
ENCODING 1257
SWIDTH 500 0
DWIDTH 12 0
BBX 9 11 1 0
BITMAP
FF80
8080
8080
8080
8080
FF80
8080
8080
8080
8080
FF80
ENDCHAR
STARTCHAR uni04EA
ENCODING 1258
SWIDTH 500 0
DWIDTH 12 0
BBX 9 19 1 0
BITMAP
2200
2200
2200
0000
FF80
8080
8080
8080
8080
8080
8080
FF80
8080
8080
8080
8080
8080
8080
FF80
ENDCHAR
STARTCHAR uni04EB
ENCODING 1259
SWIDTH 500 0
DWIDTH 12 0
BBX 9 15 1 0
BITMAP
2200
2200
2200
0000
FF80
8080
8080
8080
8080
FF80
8080
8080
8080
8080
FF80
ENDCHAR
STARTCHAR uni04EC
ENCODING 1260
SWIDTH 500 0
DWIDTH 12 0
BBX 9 19 1 0
BITMAP
2200
2200
2200
0000
FF80
8080
8080
0080
0080
0080
0080
1F80
0080
0080
0080
0080
8080
8080
FF80
ENDCHAR
STARTCHAR uni04ED
ENCODING 1261
SWIDTH 500 0
DWIDTH 12 0
BBX 9 15 1 0
BITMAP
2200
2200
2200
0000
FF80
8080
8080
0080
0080
1F80
0080
0080
8080
8080
FF80
ENDCHAR
STARTCHAR uni04EE
ENCODING 1262
SWIDTH 500 0
DWIDTH 12 0
BBX 9 18 1 0
BITMAP
7F00
0000
0000
8080
8080
8080
8080
8080
8080
8080
8080
FF80
0080
0080
0080
0080
0080
7F80
ENDCHAR
STARTCHAR uni04EF
ENCODING 1263
SWIDTH 500 0
DWIDTH 12 0
BBX 9 18 1 -4
BITMAP
7F00
0000
0000
8080
8080
8080
8080
8080
8080
8080
8080
8080
8080
FF80
0080
0080
0080
7F80
ENDCHAR
STARTCHAR uni04F0
ENCODING 1264
SWIDTH 500 0
DWIDTH 12 0
BBX 9 19 1 0
BITMAP
2200
2200
2200
0000
8080
8080
8080
8080
8080
8080
8080
8080
FF80
0080
0080
0080
0080
0080
7F80
ENDCHAR
STARTCHAR uni04F1
ENCODING 1265
SWIDTH 500 0
DWIDTH 12 0
BBX 9 19 1 -4
BITMAP
2200
2200
2200
0000
8080
8080
8080
8080
8080
8080
8080
8080
8080
8080
FF80
0080
0080
0080
7F80
ENDCHAR
STARTCHAR uni04F2
ENCODING 1266
SWIDTH 500 0
DWIDTH 12 0
BBX 9 19 1 0
BITMAP
0880
1100
2200
0000
8080
8080
8080
8080
8080
8080
8080
8080
FF80
0080
0080
0080
0080
0080
7F80
ENDCHAR
STARTCHAR uni04F3
ENCODING 1267
SWIDTH 500 0
DWIDTH 12 0
BBX 9 19 1 -4
BITMAP
0880
1100
2200
0000
8080
8080
8080
8080
8080
8080
8080
8080
8080
8080
FF80
0080
0080
0080
7F80
ENDCHAR
STARTCHAR uni04F4
ENCODING 1268
SWIDTH 500 0
DWIDTH 12 0
BBX 9 19 1 0
BITMAP
2200
2200
2200
0000
8080
8080
8080
8080
8080
8080
8080
FF80
0080
0080
0080
0080
0080
0080
0080
ENDCHAR
STARTCHAR uni04F5
ENCODING 1269
SWIDTH 500 0
DWIDTH 12 0
BBX 9 15 1 0
BITMAP
2200
2200
2200
0000
8080
8080
8080
8080
8080
FF80
0080
0080
0080
0080
0080
ENDCHAR
STARTCHAR uni04F8
ENCODING 1272
SWIDTH 500 0
DWIDTH 12 0
BBX 10 19 1 0
BITMAP
2200
2200
2200
0000
8040
8040
8040
8040
8040
FE40
8240
8240
8240
8240
8240
8240
8240
8240
FE40
ENDCHAR
STARTCHAR uni04F9
ENCODING 1273
SWIDTH 500 0
DWIDTH 12 0
BBX 9 15 1 0
BITMAP
2200
2200
2200
0000
8080
8080
8080
FC80
8480
8480
8480
8480
8480
8480
FC80
ENDCHAR
STARTCHAR Klinebelow
ENCODING 7732
SWIDTH 500 0
DWIDTH 12 0
BBX 9 18 1 -3
BITMAP
8180
8200
8400
8800
9000
A000
C000
FF80
8080
8080
8080
8080
8080
8080
8080
0000
0000
7F00
ENDCHAR
STARTCHAR klinebelow
ENCODING 7733
SWIDTH 500 0
DWIDTH 12 0
BBX 8 18 2 -3
BITMAP
80
80
80
80
81
82
84
88
90
FF
81
81
81
81
81
00
00
7E
ENDCHAR
STARTCHAR Edotbelow
ENCODING 7864
SWIDTH 500 0
DWIDTH 12 0
BBX 9 19 1 -4
BITMAP
FF80
8000
8000
8000
8000
8000
8000
FF00
8000
8000
8000
8000
8000
8000
FF80
0000
0800
0800
0800
ENDCHAR
STARTCHAR edotbelow
ENCODING 7865
SWIDTH 500 0
DWIDTH 12 0
BBX 9 15 1 -4
BITMAP
FF80
8080
8080
8080
8080
FF80
8000
8000
8000
8000
FF00
0000
0800
0800
0800
ENDCHAR
STARTCHAR Etilde
ENCODING 7868
SWIDTH 500 0
DWIDTH 12 0
BBX 9 19 1 0
BITMAP
7900
4900
4F00
0000
FF80
8000
8000
8000
8000
8000
8000
FF00
8000
8000
8000
8000
8000
8000
FF80
ENDCHAR
STARTCHAR etilde
ENCODING 7869
SWIDTH 500 0
DWIDTH 12 0
BBX 9 15 1 0
BITMAP
7900
4900
4F00
0000
FF80
8080
8080
8080
8080
FF80
8000
8000
8000
8000
FF00
ENDCHAR
STARTCHAR Odotbelow
ENCODING 7884
SWIDTH 500 0
DWIDTH 12 0
BBX 9 19 1 -4
BITMAP
FF80
8080
8080
8080
8080
8080
8080
8080
8080
8080
8080
8080
8080
8080
FF80
0000
0800
0800
0800
ENDCHAR
STARTCHAR odotbelow
ENCODING 7885
SWIDTH 500 0
DWIDTH 12 0
BBX 9 15 1 -4
BITMAP
FF80
8080
8080
8080
8080
8080
8080
8080
8080
8080
FF80
0000
0800
0800
0800
ENDCHAR
STARTCHAR Ytilde
ENCODING 7928
SWIDTH 500 0
DWIDTH 12 0
BBX 9 19 1 0
BITMAP
7900
4900
4F00
0000
8080
8080
8080
8080
8080
8080
8080
8080
FF80
0080
0080
0080
0080
0080
7F80
ENDCHAR
STARTCHAR ytilde
ENCODING 7929
SWIDTH 500 0
DWIDTH 12 0
BBX 9 19 1 -4
BITMAP
7900
4900
4F00
0000
8080
8080
8080
8080
8080
8080
8080
8080
8080
8080
FF80
0080
0080
0080
7F80
ENDCHAR
STARTCHAR uni2000
ENCODING 8192
SWIDTH 500 0
DWIDTH 12 0
BBX 0 0 0 0
BITMAP
ENDCHAR
STARTCHAR uni2001
ENCODING 8193
SWIDTH 500 0
DWIDTH 12 0
BBX 0 0 0 0
BITMAP
ENDCHAR
STARTCHAR enspace
ENCODING 8194
SWIDTH 500 0
DWIDTH 12 0
BBX 0 0 0 0
BITMAP
ENDCHAR
STARTCHAR uni2003
ENCODING 8195
SWIDTH 500 0
DWIDTH 12 0
BBX 0 0 0 0
BITMAP
ENDCHAR
STARTCHAR uni2004
ENCODING 8196
SWIDTH 500 0
DWIDTH 12 0
BBX 0 0 0 0
BITMAP
ENDCHAR
STARTCHAR uni2005
ENCODING 8197
SWIDTH 500 0
DWIDTH 12 0
BBX 0 0 0 0
BITMAP
ENDCHAR
STARTCHAR uni2006
ENCODING 8198
SWIDTH 500 0
DWIDTH 12 0
BBX 0 0 0 0
BITMAP
ENDCHAR
STARTCHAR uni2007
ENCODING 8199
SWIDTH 500 0
DWIDTH 12 0
BBX 0 0 0 0
BITMAP
ENDCHAR
STARTCHAR uni2008
ENCODING 8200
SWIDTH 500 0
DWIDTH 12 0
BBX 0 0 0 0
BITMAP
ENDCHAR
STARTCHAR uni2009
ENCODING 8201
SWIDTH 500 0
DWIDTH 12 0
BBX 0 0 0 0
BITMAP
ENDCHAR
STARTCHAR uni200A
ENCODING 8202
SWIDTH 500 0
DWIDTH 12 0
BBX 0 0 0 0
BITMAP
ENDCHAR
STARTCHAR hyphentwo
ENCODING 8208
SWIDTH 500 0
DWIDTH 12 0
BBX 7 1 2 7
BITMAP
FE
ENDCHAR
STARTCHAR uni2011
ENCODING 8209
SWIDTH 500 0
DWIDTH 12 0
BBX 7 1 2 7
BITMAP
FE
ENDCHAR
STARTCHAR figuredash
ENCODING 8210
SWIDTH 500 0
DWIDTH 12 0
BBX 9 1 1 7
BITMAP
FF80
ENDCHAR
STARTCHAR endash
ENCODING 8211
SWIDTH 500 0
DWIDTH 12 0
BBX 9 1 1 7
BITMAP
FF80
ENDCHAR
STARTCHAR emdash
ENCODING 8212
SWIDTH 500 0
DWIDTH 12 0
BBX 10 1 1 7
BITMAP
FFC0
ENDCHAR
STARTCHAR afii00208
ENCODING 8213
SWIDTH 500 0
DWIDTH 12 0
BBX 10 1 1 7
BITMAP
FFC0
ENDCHAR
STARTCHAR dblverticalbar
ENCODING 8214
SWIDTH 500 0
DWIDTH 12 0
BBX 4 15 4 0
BITMAP
90
90
90
90
90
90
90
90
90
90
90
90
90
90
90
ENDCHAR
STARTCHAR underscoredbl
ENCODING 8215
SWIDTH 500 0
DWIDTH 12 0
BBX 9 4 1 -5
BITMAP
FF80
0000
0000
FF80
ENDCHAR
STARTCHAR quoteleft
ENCODING 8216
SWIDTH 500 0
DWIDTH 12 0
BBX 2 5 5 12
BITMAP
80
80
80
80
C0
ENDCHAR
STARTCHAR quoteright
ENCODING 8217
SWIDTH 500 0
DWIDTH 12 0
BBX 2 5 4 12
BITMAP
C0
40
40
40
40
ENDCHAR
STARTCHAR quotesinglbase
ENCODING 8218
SWIDTH 500 0
DWIDTH 12 0
BBX 2 5 4 -1
BITMAP
C0
40
40
40
40
ENDCHAR
STARTCHAR quotedblleft
ENCODING 8220
SWIDTH 500 0
DWIDTH 12 0
BBX 6 5 3 12
BITMAP
88
88
88
88
CC
ENDCHAR
STARTCHAR quotedblright
ENCODING 8221
SWIDTH 500 0
DWIDTH 12 0
BBX 6 5 2 12
BITMAP
CC
44
44
44
44
ENDCHAR
STARTCHAR quotedblbase
ENCODING 8222
SWIDTH 500 0
DWIDTH 12 0
BBX 6 5 2 -1
BITMAP
CC
44
44
44
44
ENDCHAR
STARTCHAR dagger
ENCODING 8224
SWIDTH 500 0
DWIDTH 12 0
BBX 9 15 1 0
BITMAP
0800
0800
0800
0800
0800
0800
0800
0800
0800
0800
0800
FF80
0800
0800
0800
ENDCHAR
STARTCHAR daggerdbl
ENCODING 8225
SWIDTH 500 0
DWIDTH 12 0
BBX 9 15 1 0
BITMAP
0800
0800
0800
FF80
0800
0800
0800
0800
0800
0800
0800
FF80
0800
0800
0800
ENDCHAR
STARTCHAR bullet
ENCODING 8226
SWIDTH 500 0
DWIDTH 12 0
BBX 6 6 3 4
BITMAP
78
FC
FC
FC
FC
78
ENDCHAR
STARTCHAR ellipsis
ENCODING 8230
SWIDTH 500 0
DWIDTH 12 0
BBX 9 3 1 0
BITMAP
8880
8880
8880
ENDCHAR
STARTCHAR perthousand
ENCODING 8240
SWIDTH 500 0
DWIDTH 12 0
BBX 10 14 1 0
BITMAP
F200
9200
9400
F400
0800
0800
1000
1000
2000
2000
5FC0
5240
9240
9FC0
ENDCHAR
STARTCHAR minute
ENCODING 8242
SWIDTH 500 0
DWIDTH 12 0
BBX 1 6 5 11
BITMAP
80
80
80
80
80
80
ENDCHAR
STARTCHAR second
ENCODING 8243
SWIDTH 500 0
DWIDTH 12 0
BBX 5 6 3 11
BITMAP
88
88
88
88
88
88
ENDCHAR
STARTCHAR guilsinglleft
ENCODING 8249
SWIDTH 500 0
DWIDTH 12 0
BBX 6 11 3 0
BITMAP
04
08
10
20
40
80
40
20
10
08
04
ENDCHAR
STARTCHAR guilsinglright
ENCODING 8250
SWIDTH 500 0
DWIDTH 12 0
BBX 6 11 3 0
BITMAP
80
40
20
10
08
04
08
10
20
40
80
ENDCHAR
STARTCHAR exclamdbl
ENCODING 8252
SWIDTH 500 0
DWIDTH 12 0
BBX 5 15 3 0
BITMAP
88
88
88
88
88
88
88
88
88
88
00
00
88
88
88
ENDCHAR
STARTCHAR overline
ENCODING 8254
SWIDTH 500 0
DWIDTH 12 0
BBX 9 1 1 17
BITMAP
FF80
ENDCHAR
STARTCHAR nsuperior
ENCODING 8319
SWIDTH 500 0
DWIDTH 12 0
BBX 5 7 3 10
BITMAP
F0
88
88
88
88
88
88
ENDCHAR
STARTCHAR peseta
ENCODING 8359
SWIDTH 500 0
DWIDTH 12 0
BBX 10 15 1 0
BITMAP
FC00
8400
8400
8400
8400
8400
8400
FD00
8100
87C0
8100
8100
8100
8100
81C0
ENDCHAR
STARTCHAR Euro
ENCODING 8364
SWIDTH 500 0
DWIDTH 12 0
BBX 10 14 0 0
BITMAP
0F00
1080
2040
4000
4000
FE00
4000
4000
FE00
4000
4000
2040
1080
0F00
ENDCHAR
STARTCHAR uni20AE
ENCODING 8366
SWIDTH 500 0
DWIDTH 12 0
BBX 9 15 1 0
BITMAP
FF80
0800
0800
0800
0B00
0C00
1800
6B00
0C00
1800
6800
0800
0800
0800
0800
ENDCHAR
STARTCHAR afii61352
ENCODING 8470
SWIDTH 500 0
DWIDTH 12 0
BBX 12 15 0 0
BITMAP
9E00
A2F0
C290
8290
82F0
8200
8200
8200
8200
82F0
8200
8200
82F0
8200
8200
ENDCHAR
STARTCHAR trademark
ENCODING 8482
SWIDTH 500 0
DWIDTH 12 0
BBX 11 6 0 9
BITMAP
FBE0
22A0
22A0
22A0
2220
2220
ENDCHAR
STARTCHAR Ohm
ENCODING 8486
SWIDTH 500 0
DWIDTH 12 0
BBX 9 15 1 0
BITMAP
3E00
4100
8080
8080
8080
8080
8080
8080
8080
8080
8080
4100
2200
2200
E380
ENDCHAR
STARTCHAR arrowleft
ENCODING 8592
SWIDTH 500 0
DWIDTH 12 0
BBX 11 9 0 3
BITMAP
0800
1800
3800
7800
FFE0
7800
3800
1800
0800
ENDCHAR
STARTCHAR arrowup
ENCODING 8593
SWIDTH 500 0
DWIDTH 12 0
BBX 9 15 1 0
BITMAP
0800
1C00
3E00
7F00
FF80
0800
0800
0800
0800
0800
0800
0800
0800
0800
0800
ENDCHAR
STARTCHAR arrowright
ENCODING 8594
SWIDTH 500 0
DWIDTH 12 0
BBX 11 9 0 3
BITMAP
0200
0300
0380
03C0
FFE0
03C0
0380
0300
0200
ENDCHAR
STARTCHAR arrowdown
ENCODING 8595
SWIDTH 500 0
DWIDTH 12 0
BBX 9 15 1 0
BITMAP
0800
0800
0800
0800
0800
0800
0800
0800
0800
0800
FF80
7F00
3E00
1C00
0800
ENDCHAR
STARTCHAR arrowboth
ENCODING 8596
SWIDTH 500 0
DWIDTH 12 0
BBX 12 9 0 3
BITMAP
0900
1980
39C0
79E0
FFF0
79E0
39C0
1980
0900
ENDCHAR
STARTCHAR arrowupdn
ENCODING 8597
SWIDTH 500 0
DWIDTH 12 0
BBX 9 15 1 0
BITMAP
0800
1C00
3E00
7F00
FF80
0800
0800
0800
0800
0800
FF80
7F00
3E00
1C00
0800
ENDCHAR
STARTCHAR arrowupdnbse
ENCODING 8616
SWIDTH 500 0
DWIDTH 12 0
BBX 9 16 1 -1
BITMAP
0800
1C00
3E00
7F00
FF80
0800
0800
0800
0800
0800
FF80
7F00
3E00
1C00
0800
FF80
ENDCHAR
STARTCHAR carriagereturn
ENCODING 8629
SWIDTH 500 0
DWIDTH 12 0
BBX 11 15 0 0
BITMAP
0020
0020
0020
0020
0020
0020
0820
1820
3820
7820
FFE0
7800
3800
1800
0800
ENDCHAR
STARTCHAR arrowdblleft
ENCODING 8656
SWIDTH 500 0
DWIDTH 12 0
BBX 11 10 0 2
BITMAP
0800
1800
3800
7FE0
F800
F800
7FE0
3800
1800
0800
ENDCHAR
STARTCHAR arrowdblup
ENCODING 8657
SWIDTH 500 0
DWIDTH 12 0
BBX 10 15 1 0
BITMAP
0C00
1E00
3F00
7F80
FFC0
1200
1200
1200
1200
1200
1200
1200
1200
1200
1200
ENDCHAR
STARTCHAR arrowdblright
ENCODING 8658
SWIDTH 500 0
DWIDTH 12 0
BBX 11 10 0 2
BITMAP
0200
0300
0380
FFC0
03E0
03E0
FFC0
0380
0300
0200
ENDCHAR
STARTCHAR arrowdbldown
ENCODING 8659
SWIDTH 500 0
DWIDTH 12 0
BBX 10 15 1 0
BITMAP
1200
1200
1200
1200
1200
1200
1200
1200
1200
1200
FFC0
7F80
3F00
1E00
0C00
ENDCHAR
STARTCHAR arrowdblboth
ENCODING 8660
SWIDTH 500 0
DWIDTH 12 0
BBX 12 10 0 2
BITMAP
0900
1980
39C0
7FE0
F9F0
F9F0
7FE0
39C0
1980
0900
ENDCHAR
STARTCHAR uni21D5
ENCODING 8661
SWIDTH 500 0
DWIDTH 12 0
BBX 10 15 1 0
BITMAP
0C00
1E00
3F00
7F80
FFC0
1200
1200
1200
1200
1200
FFC0
7F80
3F00
1E00
0C00
ENDCHAR
STARTCHAR emptyset
ENCODING 8709
SWIDTH 500 0
DWIDTH 12 0
BBX 11 11 0 2
BITMAP
0020
1F40
2080
4140
4240
4440
4840
5040
2080
5F00
8000
ENDCHAR
STARTCHAR increment
ENCODING 8710
SWIDTH 500 0
DWIDTH 12 0
BBX 9 15 1 0
BITMAP
0800
0800
0800
1400
1400
1400
2200
2200
2200
4100
4100
4100
8080
8080
FF80
ENDCHAR
STARTCHAR element
ENCODING 8712
SWIDTH 500 0
DWIDTH 12 0
BBX 9 11 1 0
BITMAP
3F80
4000
8000
8000
8000
FC00
8000
8000
8000
4000
3F80
ENDCHAR
STARTCHAR minus
ENCODING 8722
SWIDTH 500 0
DWIDTH 12 0
BBX 9 1 1 7
BITMAP
FF80
ENDCHAR
STARTCHAR bulletoperator
ENCODING 8729
SWIDTH 500 0
DWIDTH 12 0
BBX 4 4 4 5
BITMAP
60
F0
F0
60
ENDCHAR
STARTCHAR radical
ENCODING 8730
SWIDTH 500 0
DWIDTH 12 0
BBX 10 17 1 0
BITMAP
01C0
0100
0100
0100
0100
0100
0100
0100
8100
8100
8100
4100
2100
1100
0900
0500
0300
ENDCHAR
STARTCHAR infinity
ENCODING 8734
SWIDTH 500 0
DWIDTH 12 0
BBX 9 9 1 3
BITMAP
7700
8880
8880
8880
8880
8880
8880
8880
7700
ENDCHAR
STARTCHAR orthogonal
ENCODING 8735
SWIDTH 500 0
DWIDTH 12 0
BBX 9 9 1 3
BITMAP
8000
8000
8000
8000
8000
8000
8000
8000
FF80
ENDCHAR
STARTCHAR logicaland
ENCODING 8743
SWIDTH 500 0
DWIDTH 12 0
BBX 9 11 1 0
BITMAP
0800
0800
1400
1400
2200
2200
4100
4100
4100
8080
8080
ENDCHAR
STARTCHAR logicalor
ENCODING 8744
SWIDTH 500 0
DWIDTH 12 0
BBX 9 11 1 0
BITMAP
8080
8080
4100
4100
4100
2200
2200
1400
1400
0800
0800
ENDCHAR
STARTCHAR intersection
ENCODING 8745
SWIDTH 500 0
DWIDTH 12 0
BBX 9 13 1 0
BITMAP
3E00
4100
8080
8080
8080
8080
8080
8080
8080
8080
8080
8080
8080
ENDCHAR
STARTCHAR union
ENCODING 8746
SWIDTH 500 0
DWIDTH 12 0
BBX 9 13 1 0
BITMAP
8080
8080
8080
8080
8080
8080
8080
8080
8080
8080
8080
4100
3E00
ENDCHAR
STARTCHAR approxequal
ENCODING 8776
SWIDTH 500 0
DWIDTH 12 0
BBX 9 7 1 4
BITMAP
7080
8880
8700
0000
7080
8880
8700
ENDCHAR
STARTCHAR notequal
ENCODING 8800
SWIDTH 500 0
DWIDTH 12 0
BBX 9 9 1 3
BITMAP
0080
FF80
0200
0400
0800
1000
2000
FF80
8000
ENDCHAR
STARTCHAR equivalence
ENCODING 8801
SWIDTH 500 0
DWIDTH 12 0
BBX 9 11 1 2
BITMAP
FF80
0000
0000
0000
0000
FF80
0000
0000
0000
0000
FF80
ENDCHAR
STARTCHAR lessequal
ENCODING 8804
SWIDTH 500 0
DWIDTH 12 0
BBX 9 15 1 0
BITMAP
0100
0200
0400
0800
1000
2000
4000
2000
1000
0800
0400
0200
0100
0000
FF80
ENDCHAR
STARTCHAR greaterequal
ENCODING 8805
SWIDTH 500 0
DWIDTH 12 0
BBX 9 15 1 0
BITMAP
4000
2000
1000
0800
0400
0200
0100
0200
0400
0800
1000
2000
4000
0000
FF80
ENDCHAR
STARTCHAR house
ENCODING 8962
SWIDTH 500 0
DWIDTH 12 0
BBX 9 12 1 1
BITMAP
0800
0800
1400
2200
2200
4100
4100
8080
8080
8080
8080
FF80
ENDCHAR
STARTCHAR revlogicalnot
ENCODING 8976
SWIDTH 500 0
DWIDTH 12 0
BBX 9 6 1 4
BITMAP
FF80
8000
8000
8000
8000
8000
ENDCHAR
STARTCHAR integraltp
ENCODING 8992
SWIDTH 500 0
DWIDTH 12 0
BBX 5 20 5 -5
BITMAP
70
88
88
80
80
80
80
80
80
80
80
80
80
80
80
80
80
80
80
80
ENDCHAR
STARTCHAR integralbt
ENCODING 8993
SWIDTH 500 0
DWIDTH 12 0
BBX 5 19 1 0
BITMAP
08
08
08
08
08
08
08
08
08
08
08
08
08
08
08
08
88
88
70
ENDCHAR
STARTCHAR uni23BA
ENCODING 9146
SWIDTH 500 0
DWIDTH 12 0
BBX 12 1 0 18
BITMAP
FFF0
ENDCHAR
STARTCHAR uni23BB
ENCODING 9147
SWIDTH 500 0
DWIDTH 12 0
BBX 12 1 0 12
BITMAP
FFF0
ENDCHAR
STARTCHAR uni23BC
ENCODING 9148
SWIDTH 500 0
DWIDTH 12 0
BBX 12 1 0 1
BITMAP
FFF0
ENDCHAR
STARTCHAR uni23BD
ENCODING 9149
SWIDTH 500 0
DWIDTH 12 0
BBX 12 1 0 -5
BITMAP
FFF0
ENDCHAR
STARTCHAR uni2409
ENCODING 9225
SWIDTH 500 0
DWIDTH 12 0
BBX 9 16 1 0
BITMAP
8800
8800
8800
F800
8800
8800
8800
0000
0000
0F80
0200
0200
0200
0200
0200
0200
ENDCHAR
STARTCHAR uni240A
ENCODING 9226
SWIDTH 500 0
DWIDTH 12 0
BBX 9 16 1 0
BITMAP
8000
8000
8000
8000
8000
8000
F800
0000
0000
0F80
0800
0800
0E00
0800
0800
0800
ENDCHAR
STARTCHAR uni240B
ENCODING 9227
SWIDTH 500 0
DWIDTH 12 0
BBX 9 16 1 0
BITMAP
8800
8800
8800
5000
5000
2000
2000
0000
0000
0F80
0200
0200
0200
0200
0200
0200
ENDCHAR
STARTCHAR uni240C
ENCODING 9228
SWIDTH 500 0
DWIDTH 12 0
BBX 9 16 1 0
BITMAP
F800
8000
8000
E000
8000
8000
8000
0000
0000
0F80
0800
0800
0E00
0800
0800
0800
ENDCHAR
STARTCHAR uni240D
ENCODING 9229
SWIDTH 500 0
DWIDTH 12 0
BBX 9 16 1 0
BITMAP
7000
8800
8000
8000
8000
8800
7000
0000
0000
0F00
0880
0880
0F00
0A00
0900
0880
ENDCHAR
STARTCHAR uni2424
ENCODING 9252
SWIDTH 500 0
DWIDTH 12 0
BBX 9 16 1 0
BITMAP
8800
8800
C800
A800
9800
8800
8800
0000
0000
0800
0800
0800
0800
0800
0800
0F80
ENDCHAR
STARTCHAR SF100000
ENCODING 9472
SWIDTH 500 0
DWIDTH 12 0
BBX 12 1 0 7
BITMAP
FFF0
ENDCHAR
STARTCHAR SF110000
ENCODING 9474
SWIDTH 500 0
DWIDTH 12 0
BBX 1 24 5 -5
BITMAP
80
80
80
80
80
80
80
80
80
80
80
80
80
80
80
80
80
80
80
80
80
80
80
80
ENDCHAR
STARTCHAR SF010000
ENCODING 9484
SWIDTH 500 0
DWIDTH 12 0
BBX 7 13 5 -5
BITMAP
FE
80
80
80
80
80
80
80
80
80
80
80
80
ENDCHAR
STARTCHAR SF030000
ENCODING 9488
SWIDTH 500 0
DWIDTH 12 0
BBX 6 13 0 -5
BITMAP
FC
04
04
04
04
04
04
04
04
04
04
04
04
ENDCHAR
STARTCHAR SF020000
ENCODING 9492
SWIDTH 500 0
DWIDTH 12 0
BBX 7 12 5 7
BITMAP
80
80
80
80
80
80
80
80
80
80
80
FE
ENDCHAR
STARTCHAR SF040000
ENCODING 9496
SWIDTH 500 0
DWIDTH 12 0
BBX 6 12 0 7
BITMAP
04
04
04
04
04
04
04
04
04
04
04
FC
ENDCHAR
STARTCHAR SF080000
ENCODING 9500
SWIDTH 500 0
DWIDTH 12 0
BBX 7 24 5 -5
BITMAP
80
80
80
80
80
80
80
80
80
80
80
FE
80
80
80
80
80
80
80
80
80
80
80
80
ENDCHAR
STARTCHAR SF090000
ENCODING 9508
SWIDTH 500 0
DWIDTH 12 0
BBX 6 24 0 -5
BITMAP
04
04
04
04
04
04
04
04
04
04
04
FC
04
04
04
04
04
04
04
04
04
04
04
04
ENDCHAR
STARTCHAR SF060000
ENCODING 9516
SWIDTH 500 0
DWIDTH 12 0
BBX 12 13 0 -5
BITMAP
FFF0
0400
0400
0400
0400
0400
0400
0400
0400
0400
0400
0400
0400
ENDCHAR
STARTCHAR SF070000
ENCODING 9524
SWIDTH 500 0
DWIDTH 12 0
BBX 12 12 0 7
BITMAP
0400
0400
0400
0400
0400
0400
0400
0400
0400
0400
0400
FFF0
ENDCHAR
STARTCHAR SF050000
ENCODING 9532
SWIDTH 500 0
DWIDTH 12 0
BBX 12 24 0 -5
BITMAP
0400
0400
0400
0400
0400
0400
0400
0400
0400
0400
0400
FFF0
0400
0400
0400
0400
0400
0400
0400
0400
0400
0400
0400
0400
ENDCHAR
STARTCHAR SF430000
ENCODING 9552
SWIDTH 500 0
DWIDTH 12 0
BBX 12 4 0 5
BITMAP
FFF0
0000
0000
FFF0
ENDCHAR
STARTCHAR SF240000
ENCODING 9553
SWIDTH 500 0
DWIDTH 12 0
BBX 4 24 4 -5
BITMAP
90
90
90
90
90
90
90
90
90
90
90
90
90
90
90
90
90
90
90
90
90
90
90
90
ENDCHAR
STARTCHAR SF510000
ENCODING 9554
SWIDTH 500 0
DWIDTH 12 0
BBX 7 14 5 -5
BITMAP
FE
80
80
FE
80
80
80
80
80
80
80
80
80
80
ENDCHAR
STARTCHAR SF520000
ENCODING 9555
SWIDTH 500 0
DWIDTH 12 0
BBX 8 13 4 -5
BITMAP
FF
90
90
90
90
90
90
90
90
90
90
90
90
ENDCHAR
STARTCHAR SF390000
ENCODING 9556
SWIDTH 500 0
DWIDTH 12 0
BBX 8 14 4 -5
BITMAP
FF
80
80
9F
90
90
90
90
90
90
90
90
90
90
ENDCHAR
STARTCHAR SF220000
ENCODING 9557
SWIDTH 500 0
DWIDTH 12 0
BBX 6 14 0 -5
BITMAP
FC
04
04
FC
04
04
04
04
04
04
04
04
04
04
ENDCHAR
STARTCHAR SF210000
ENCODING 9558
SWIDTH 500 0
DWIDTH 12 0
BBX 8 13 0 -5
BITMAP
FF
09
09
09
09
09
09
09
09
09
09
09
09
ENDCHAR
STARTCHAR SF250000
ENCODING 9559
SWIDTH 500 0
DWIDTH 12 0
BBX 8 14 0 -5
BITMAP
FF
01
01
F9
09
09
09
09
09
09
09
09
09
09
ENDCHAR
STARTCHAR SF500000
ENCODING 9560
SWIDTH 500 0
DWIDTH 12 0
BBX 7 14 5 5
BITMAP
80
80
80
80
80
80
80
80
80
80
FE
80
80
FE
ENDCHAR
STARTCHAR SF490000
ENCODING 9561
SWIDTH 500 0
DWIDTH 12 0
BBX 8 12 4 7
BITMAP
90
90
90
90
90
90
90
90
90
90
90
FF
ENDCHAR
STARTCHAR SF380000
ENCODING 9562
SWIDTH 500 0
DWIDTH 12 0
BBX 8 14 4 5
BITMAP
90
90
90
90
90
90
90
90
90
90
9F
80
80
FF
ENDCHAR
STARTCHAR SF280000
ENCODING 9563
SWIDTH 500 0
DWIDTH 12 0
BBX 6 14 0 5
BITMAP
04
04
04
04
04
04
04
04
04
04
FC
04
04
FC
ENDCHAR
STARTCHAR SF270000
ENCODING 9564
SWIDTH 500 0
DWIDTH 12 0
BBX 8 12 0 7
BITMAP
09
09
09
09
09
09
09
09
09
09
09
FF
ENDCHAR
STARTCHAR SF260000
ENCODING 9565
SWIDTH 500 0
DWIDTH 12 0
BBX 8 14 0 5
BITMAP
09
09
09
09
09
09
09
09
09
09
F9
01
01
FF
ENDCHAR
STARTCHAR SF360000
ENCODING 9566
SWIDTH 500 0
DWIDTH 12 0
BBX 7 24 5 -5
BITMAP
80
80
80
80
80
80
80
80
80
80
FE
80
80
FE
80
80
80
80
80
80
80
80
80
80
ENDCHAR
STARTCHAR SF370000
ENCODING 9567
SWIDTH 500 0
DWIDTH 12 0
BBX 8 24 4 -5
BITMAP
90
90
90
90
90
90
90
90
90
90
90
9F
90
90
90
90
90
90
90
90
90
90
90
90
ENDCHAR
STARTCHAR SF420000
ENCODING 9568
SWIDTH 500 0
DWIDTH 12 0
BBX 8 24 4 -5
BITMAP
90
90
90
90
90
90
90
90
90
90
9F
80
80
9F
90
90
90
90
90
90
90
90
90
90
ENDCHAR
STARTCHAR SF190000
ENCODING 9569
SWIDTH 500 0
DWIDTH 12 0
BBX 6 24 0 -5
BITMAP
04
04
04
04
04
04
04
04
04
04
FC
04
04
FC
04
04
04
04
04
04
04
04
04
04
ENDCHAR
STARTCHAR SF200000
ENCODING 9570
SWIDTH 500 0
DWIDTH 12 0
BBX 8 24 0 -5
BITMAP
09
09
09
09
09
09
09
09
09
09
09
F9
09
09
09
09
09
09
09
09
09
09
09
09
ENDCHAR
STARTCHAR SF230000
ENCODING 9571
SWIDTH 500 0
DWIDTH 12 0
BBX 8 24 0 -5
BITMAP
09
09
09
09
09
09
09
09
09
09
F9
01
01
F9
09
09
09
09
09
09
09
09
09
09
ENDCHAR
STARTCHAR SF470000
ENCODING 9572
SWIDTH 500 0
DWIDTH 12 0
BBX 12 14 0 -5
BITMAP
FFF0
0000
0000
FFF0
0400
0400
0400
0400
0400
0400
0400
0400
0400
0400
ENDCHAR
STARTCHAR SF480000
ENCODING 9573
SWIDTH 500 0
DWIDTH 12 0
BBX 12 13 0 -5
BITMAP
FFF0
0900
0900
0900
0900
0900
0900
0900
0900
0900
0900
0900
0900
ENDCHAR
STARTCHAR SF410000
ENCODING 9574
SWIDTH 500 0
DWIDTH 12 0
BBX 12 14 0 -5
BITMAP
FFF0
0000
0000
F9F0
0900
0900
0900
0900
0900
0900
0900
0900
0900
0900
ENDCHAR
STARTCHAR SF450000
ENCODING 9575
SWIDTH 500 0
DWIDTH 12 0
BBX 12 14 0 5
BITMAP
0400
0400
0400
0400
0400
0400
0400
0400
0400
0400
FFF0
0000
0000
FFF0
ENDCHAR
STARTCHAR SF460000
ENCODING 9576
SWIDTH 500 0
DWIDTH 12 0
BBX 12 12 0 7
BITMAP
0900
0900
0900
0900
0900
0900
0900
0900
0900
0900
0900
FFF0
ENDCHAR
STARTCHAR SF400000
ENCODING 9577
SWIDTH 500 0
DWIDTH 12 0
BBX 12 14 0 5
BITMAP
0900
0900
0900
0900
0900
0900
0900
0900
0900
0900
F9F0
0000
0000
FFF0
ENDCHAR
STARTCHAR SF540000
ENCODING 9578
SWIDTH 500 0
DWIDTH 12 0
BBX 12 24 0 -5
BITMAP
0400
0400
0400
0400
0400
0400
0400
0400
0400
0400
FFF0
0400
0400
FFF0
0400
0400
0400
0400
0400
0400
0400
0400
0400
0400
ENDCHAR
STARTCHAR SF530000
ENCODING 9579
SWIDTH 500 0
DWIDTH 12 0
BBX 12 24 0 -5
BITMAP
0900
0900
0900
0900
0900
0900
0900
0900
0900
0900
0900
FFF0
0900
0900
0900
0900
0900
0900
0900
0900
0900
0900
0900
0900
ENDCHAR
STARTCHAR SF440000
ENCODING 9580
SWIDTH 500 0
DWIDTH 12 0
BBX 12 24 0 -5
BITMAP
0900
0900
0900
0900
0900
0900
0900
0900
0900
0900
F9F0
0000
0000
F9F0
0900
0900
0900
0900
0900
0900
0900
0900
0900
0900
ENDCHAR
STARTCHAR upblock
ENCODING 9600
SWIDTH 500 0
DWIDTH 12 0
BBX 12 12 0 7
BITMAP
FFF0
FFF0
FFF0
FFF0
FFF0
FFF0
FFF0
FFF0
FFF0
FFF0
FFF0
FFF0
ENDCHAR
STARTCHAR dnblock
ENCODING 9604
SWIDTH 500 0
DWIDTH 12 0
BBX 12 12 0 -5
BITMAP
FFF0
FFF0
FFF0
FFF0
FFF0
FFF0
FFF0
FFF0
FFF0
FFF0
FFF0
FFF0
ENDCHAR
STARTCHAR block
ENCODING 9608
SWIDTH 500 0
DWIDTH 12 0
BBX 12 24 0 -5
BITMAP
FFF0
FFF0
FFF0
FFF0
FFF0
FFF0
FFF0
FFF0
FFF0
FFF0
FFF0
FFF0
FFF0
FFF0
FFF0
FFF0
FFF0
FFF0
FFF0
FFF0
FFF0
FFF0
FFF0
FFF0
ENDCHAR
STARTCHAR lfblock
ENCODING 9612
SWIDTH 500 0
DWIDTH 12 0
BBX 6 24 0 -5
BITMAP
FC
FC
FC
FC
FC
FC
FC
FC
FC
FC
FC
FC
FC
FC
FC
FC
FC
FC
FC
FC
FC
FC
FC
FC
ENDCHAR
STARTCHAR rtblock
ENCODING 9616
SWIDTH 500 0
DWIDTH 12 0
BBX 6 24 6 -5
BITMAP
FC
FC
FC
FC
FC
FC
FC
FC
FC
FC
FC
FC
FC
FC
FC
FC
FC
FC
FC
FC
FC
FC
FC
FC
ENDCHAR
STARTCHAR ltshade
ENCODING 9617
SWIDTH 500 0
DWIDTH 12 0
BBX 11 23 0 -4
BITMAP
AAA0
0000
AAA0
0000
AAA0
0000
AAA0
0000
AAA0
0000
AAA0
0000
AAA0
0000
AAA0
0000
AAA0
0000
AAA0
0000
AAA0
0000
AAA0
ENDCHAR
STARTCHAR shade
ENCODING 9618
SWIDTH 500 0
DWIDTH 12 0
BBX 12 24 0 -5
BITMAP
AAA0
5550
AAA0
5550
AAA0
5550
AAA0
5550
AAA0
5550
AAA0
5550
AAA0
5550
AAA0
5550
AAA0
5550
AAA0
5550
AAA0
5550
AAA0
5550
ENDCHAR
STARTCHAR dkshade
ENCODING 9619
SWIDTH 500 0
DWIDTH 12 0
BBX 12 24 0 -5
BITMAP
FFF0
AAA0
FFF0
AAA0
FFF0
AAA0
FFF0
AAA0
FFF0
AAA0
FFF0
AAA0
FFF0
AAA0
FFF0
AAA0
FFF0
AAA0
FFF0
AAA0
FFF0
AAA0
FFF0
AAA0
ENDCHAR
STARTCHAR filledbox
ENCODING 9632
SWIDTH 500 0
DWIDTH 12 0
BBX 7 10 2 2
BITMAP
FE
FE
FE
FE
FE
FE
FE
FE
FE
FE
ENDCHAR
STARTCHAR filledrect
ENCODING 9644
SWIDTH 500 0
DWIDTH 12 0
BBX 10 6 1 0
BITMAP
FFC0
FFC0
FFC0
FFC0
FFC0
FFC0
ENDCHAR
STARTCHAR uni25AE
ENCODING 9646
SWIDTH 500 0
DWIDTH 12 0
BBX 9 15 1 0
BITMAP
FF80
FF80
FF80
FF80
FF80
FF80
FF80
FF80
FF80
FF80
FF80
FF80
FF80
FF80
FF80
ENDCHAR
STARTCHAR triagup
ENCODING 9650
SWIDTH 500 0
DWIDTH 12 0
BBX 11 12 0 1
BITMAP
0400
0400
0E00
0E00
1F00
1F00
3F80
3F80
7FC0
7FC0
FFE0
FFE0
ENDCHAR
STARTCHAR uni25B6
ENCODING 9654
SWIDTH 500 0
DWIDTH 12 0
BBX 9 17 1 -1
BITMAP
8000
C000
E000
F000
F800
FC00
FE00
FF00
FF80
FF00
FE00
FC00
F800
F000
E000
C000
8000
ENDCHAR
STARTCHAR triagdn
ENCODING 9660
SWIDTH 500 0
DWIDTH 12 0
BBX 11 12 0 1
BITMAP
FFE0
FFE0
7FC0
7FC0
3F80
3F80
1F00
1F00
0E00
0E00
0400
0400
ENDCHAR
STARTCHAR uni25C0
ENCODING 9664
SWIDTH 500 0
DWIDTH 12 0
BBX 9 17 1 -1
BITMAP
0080
0180
0380
0780
0F80
1F80
3F80
7F80
FF80
7F80
3F80
1F80
0F80
0780
0380
0180
0080
ENDCHAR
STARTCHAR blackdiamond
ENCODING 9670
SWIDTH 500 0
DWIDTH 12 0
BBX 11 11 0 2
BITMAP
0400
0E00
1F00
3F80
7FC0
FFE0
7FC0
3F80
1F00
0E00
0400
ENDCHAR
STARTCHAR lozenge
ENCODING 9674
SWIDTH 500 0
DWIDTH 12 0
BBX 11 11 0 2
BITMAP
0400
0A00
1100
2080
4040
8020
4040
2080
1100
0A00
0400
ENDCHAR
STARTCHAR circle
ENCODING 9675
SWIDTH 500 0
DWIDTH 12 0
BBX 6 6 3 4
BITMAP
78
84
84
84
84
78
ENDCHAR
STARTCHAR invbullet
ENCODING 9688
SWIDTH 500 0
DWIDTH 12 0
BBX 12 24 0 -5
BITMAP
FFF0
FFF0
FFF0
FFF0
FFF0
FFF0
FFF0
FFF0
FFF0
F0F0
E070
E070
E070
E070
F0F0
FFF0
FFF0
FFF0
FFF0
FFF0
FFF0
FFF0
FFF0
FFF0
ENDCHAR
STARTCHAR invcircle
ENCODING 9689
SWIDTH 500 0
DWIDTH 12 0
BBX 12 24 0 -5
BITMAP
FFF0
FFF0
FFF0
FFF0
FFF0
FFF0
FFF0
FFF0
FFF0
F0F0
EF70
EF70
EF70
EF70
F0F0
FFF0
FFF0
FFF0
FFF0
FFF0
FFF0
FFF0
FFF0
FFF0
ENDCHAR
STARTCHAR smileface
ENCODING 9786
SWIDTH 500 0
DWIDTH 12 0
BBX 11 15 0 0
BITMAP
3F80
4040
8020
8020
9B20
9B20
8020
8020
8020
9F20
8E20
8020
8020
4040
3F80
ENDCHAR
STARTCHAR invsmileface
ENCODING 9787
SWIDTH 500 0
DWIDTH 12 0
BBX 11 15 0 0
BITMAP
3F80
7FC0
FFE0
FFE0
E4E0
E4E0
FFE0
FFE0
FFE0
E0E0
F1E0
FFE0
FFE0
7FC0
3F80
ENDCHAR
STARTCHAR sun
ENCODING 9788
SWIDTH 500 0
DWIDTH 12 0
BBX 11 15 0 0
BITMAP
0400
0400
0400
C460
2480
1500
0E00
FBE0
0E00
1500
2480
C460
0400
0400
0400
ENDCHAR
STARTCHAR female
ENCODING 9792
SWIDTH 500 0
DWIDTH 12 0
BBX 9 15 1 0
BITMAP
3E00
4100
8080
8080
8080
8080
8080
4100
3E00
0800
0800
FF80
0800
0800
0800
ENDCHAR
STARTCHAR male
ENCODING 9794
SWIDTH 500 0
DWIDTH 12 0
BBX 9 15 1 0
BITMAP
0F80
0180
0280
0480
0880
1000
3E00
4100
8080
8080
8080
8080
8080
4100
3E00
ENDCHAR
STARTCHAR spade
ENCODING 9824
SWIDTH 500 0
DWIDTH 12 0
BBX 9 15 1 0
BITMAP
0800
0800
1C00
3E00
7F00
FF80
FF80
FF80
FF80
FF80
6B00
0800
0800
0800
3E00
ENDCHAR
STARTCHAR club
ENCODING 9827
SWIDTH 500 0
DWIDTH 12 0
BBX 11 15 0 0
BITMAP
0E00
1F00
1F00
0E00
0400
0400
75C0
FFE0
FFE0
FFE0
75C0
0400
0400
0400
1F00
ENDCHAR
STARTCHAR heart
ENCODING 9829
SWIDTH 500 0
DWIDTH 12 0
BBX 11 12 0 1
BITMAP
3180
7BC0
FFE0
FFE0
FFE0
FFE0
FFE0
7FC0
3F80
1F00
0E00
0400
ENDCHAR
STARTCHAR diamond
ENCODING 9830
SWIDTH 500 0
DWIDTH 12 0
BBX 11 11 0 2
BITMAP
0400
0E00
1F00
3F80
7FC0
FFE0
7FC0
3F80
1F00
0E00
0400
ENDCHAR
STARTCHAR musicalnote
ENCODING 9834
SWIDTH 500 0
DWIDTH 12 0
BBX 11 15 0 0
BITMAP
1FE0
1020
1020
1020
1FE0
1000
1000
1000
1000
1000
1000
1000
1000
1000
E000
ENDCHAR
STARTCHAR musicalnotedbl
ENCODING 9835
SWIDTH 500 0
DWIDTH 12 0
BBX 10 15 0 0
BITMAP
7FC0
4040
4040
4040
7FC0
4040
4040
4040
4040
4040
4040
4040
4040
4080
8000
ENDCHAR
STARTCHAR dotlessj
ENCODING 63166
SWIDTH 500 0
DWIDTH 12 0
BBX 7 15 2 -4
BITMAP
0E
02
02
02
02
02
02
02
02
02
02
02
82
82
FE
ENDCHAR
STARTCHAR uniFFFD
ENCODING 65533
SWIDTH 500 0
DWIDTH 12 0
BBX 9 15 1 0
BITMAP
FF80
8080
8080
8080
8080
8080
8080
8080
8080
8080
8080
8080
8080
8080
FF80
ENDCHAR
ENDFONT
